<?xml version="1.0" encoding="UTF-8" standalone="no"?>
<svg
        xmlns="http://www.w3.org/2000/svg"
        width="35.272038mm"
        height="49.687504mm"
        viewBox="0 0 35.272038 49.687505"
        version="1.1"
        id="svg3262">
    <defs
            id="defs3256"/>
    <metadata
            id="metadata3259">
    </metadata>
    <g
            id="layer1"
            transform="translate(-88.197301,-123.32292)">
        <path
                style="fill:#070707;stroke:none;stroke-width:0.117784"
                d="m 105.24435,143.91851 c -0.68621,0.5464 -1.28101,1.27006 -1.53119,2.12012 -3.07899,-1.30506 -4.676138,-5.15295 -7.080588,-7.53818 -0.44205,-0.43854 -2.21086,-3.36216 -2.81327,-1.64898 1.11843,0.10174 1.63045,1.29309 2.32106,2.0655 0.54207,0.60627 1.45858,0.96973 1.91045,1.61089 1.32059,1.87371 2.469578,6.03397 5.191208,6.33526 l -0.11778,0.94227 c -0.89293,-0.63403 -3.412788,-2.18537 -4.561178,-1.50835 -1.82247,1.07419 -1.95085,6.14609 -2.75424,7.98647 -0.54087,1.23897 -2.91828,2.60962 -2.57843,4.00466 2.92954,-2.63377 5.20157,-7.09685 5.53585,-11.18949 0.88596,0.0725 4.276728,1.19846 4.552808,2.14461 0.19022,0.6517 -3.356138,2.6055 -3.802888,3.39124 -1.29951,2.28596 0.695268,6.2481 0.024,8.8338 -0.36583,1.40894 -2.46594,2.91186 -2.06945,4.35802 h 0.11778 l 0.94227,-0.70671 2.002328,-3.41574 c -0.583388,-2.07606 -0.14771,-4.13045 -0.24017,-6.24255 -0.0266,-0.60777 -0.450168,-1.6829 -0.13946,-2.22695 0.60095,-1.05216 2.74131,-1.7399 3.67758,-2.60219 l 0.47114,2.82681 c -4.764958,1.74709 -2.96462,8.26208 -1.00493,11.42506 0.46889,0.75687 1.49443,3.12634 2.53612,3.12634 1.04168,0 2.06723,-2.36947 2.53613,-3.12634 1.46782,-2.36911 2.6406,-5.71276 1.73366,-8.48046 -0.85923,-2.62222 -3.45908,-2.70008 -2.26746,-5.77141 0.92095,0.72 3.12445,1.63378 3.67757,2.60219 0.31954,0.55947 -0.11192,1.71588 -0.13946,2.34473 -0.0911,2.08113 0.33569,4.0758 -0.24016,6.12477 l 2.00233,3.41574 0.94227,0.70671 h 0.11778 c 0.39117,-1.43756 -1.70657,-2.96028 -2.06946,-4.35802 -0.67137,-2.5857 1.32343,-6.54784 0.024,-8.8338 -0.44782,-0.78774 -3.99524,-2.73247 -3.8029,-3.39124 0.27609,-0.94615 3.66686,-2.07218 4.55283,-2.14461 0.16584,2.03084 1.28267,3.96225 1.8816,5.8892 0.20212,0.65076 0.22273,1.7683 0.94522,2.00233 0.0811,1.48208 1.72623,2.41434 2.70903,3.29796 0.3391,-1.39221 -2.0352,-2.76934 -2.57853,-4.00466 -0.80635,-1.83332 -0.93886,-6.9164 -2.75415,-7.98647 -1.14839,-0.67702 -3.66826,0.87432 -4.56118,1.50835 l -0.11779,-0.94227 c 1.48173,-0.16408 2.57924,-1.92601 3.33718,-3.0624 1.53532,-2.30185 3.36274,-6.01213 6.08555,-7.06704 v -0.23556 c -1.60374,-0.47509 -1.9988,1.27789 -2.99926,2.18646 -2.54919,2.31524 -3.72997,6.01272 -6.8946,7.35405 -0.19859,-0.8451 -0.86441,-1.58927 -1.53119,-2.12012 3.95436,-1.14698 1.11577,-3.78569 1.80233,-6.24255 0.51919,-1.85819 1.99008,-3.28077 2.31056,-5.1825 0.13617,-0.80827 0.70954,-3.82677 -0.48162,-4.15171 -0.98973,-0.27004 -0.28844,2.4467 -0.23085,2.85608 0.15182,1.08079 -0.77654,5.82073 -2.11929,6.05042 -0.48456,0.0829 -0.87348,-1.10343 -1.28113,-1.33906 l -0.11779,0.58893 h -0.94227 l -0.11778,-0.58893 c -0.40071,0.23972 -0.79882,1.42143 -1.28115,1.33906 -1.3339,-0.22777 -2.27075,-4.97228 -2.11928,-6.05042 0.0576,-0.40938 0.75888,-3.12612 -0.23086,-2.85608 -1.17666,0.32102 -0.61695,3.34869 -0.48162,4.15171 0.3205,1.90173 1.79138,3.32431 2.31057,5.1825 0.68657,2.45686 -2.15203,5.09557 1.80234,6.24255 z"
                id="path3878"/>
    </g>
</svg>
