<?xml version="1.0" encoding="UTF-8" standalone="no"?>
<svg
   xmlns="http://www.w3.org/2000/svg"
   width="29.575811mm"
   height="44.660355mm"
   viewBox="0 0 29.575811 44.660355"
   version="1.1"
   id="svg2649">
  <defs
     id="defs2643" />
  <metadata
     id="metadata2646">
  </metadata>
  <g
     id="layer1"
     transform="translate(58.337803,-36.857465)">
    <path
       style="fill:#000000;fill-opacity:1;stroke:#ffffff;stroke-width:0.0562413;stroke-miterlimit:4;stroke-dasharray:none;stroke-opacity:1"
       d="m -53.290904,46.278293 c 0.02929,-0.02929 0.212091,-0.02412 0.231038,0.0065 0.009,0.01451 -0.01163,0.03368 -0.04577,0.04261 -0.06035,0.01578 -0.05972,0.0192 0.02266,0.122676 0.08194,0.102941 0.175842,0.15868 0.209914,0.124608 0.0091,-0.0091 -0.0068,-0.06573 -0.03535,-0.125868 -0.07825,-0.164904 -0.05051,-0.416273 0.05606,-0.507938 0.08983,-0.07727 0.188207,-0.08877 0.266942,-0.03119 0.04843,0.03542 0.04749,0.03852 -0.01306,0.04308 -0.03589,0.0027 -0.09699,0.03474 -0.135792,0.07118 -0.05682,0.05338 -0.07054,0.09662 -0.07054,0.222333 0,0.193705 0.02065,0.250215 0.09142,0.250215 0.07307,0 0.102375,0.06272 0.144583,0.309443 0.05108,0.298611 0.119875,0.407858 0.504509,0.801211 0.38693,0.395702 0.474968,0.467146 0.609575,0.494675 0.07109,0.01454 0.120061,0.05953 0.205732,0.18899 0.06184,0.09345 0.131525,0.169909 0.154857,0.169909 0.102085,0 0.189858,0.07377 0.252385,0.21212 0.04922,0.108898 0.09591,0.161774 0.181388,0.205378 0.11679,0.05958 0.133554,0.09258 0.191207,0.376317 0.01055,0.05194 0.05991,0.155904 0.109672,0.231038 0.08773,0.13244 0.08985,0.143752 0.06975,0.370825 -0.02334,0.26369 -0.01675,0.274774 0.167515,0.281491 0.111333,0.0041 0.122096,-0.0031 0.172003,-0.114715 0.06465,-0.144555 0.198826,-0.28273 0.274555,-0.28273 0.049,0 0.04503,0.01465 -0.03313,0.122558 -0.04883,0.06741 -0.09545,0.164502 -0.103598,0.215767 -0.0081,0.05127 -0.03614,0.225415 -0.06221,0.386999 -0.06981,0.432734 -0.02289,0.898625 0.212095,2.106057 0.192974,0.991576 0.250431,1.352707 0.250439,1.57407 1.1e-5,0.301514 0.100083,0.402338 0.25027,0.252151 0.103962,-0.103962 0.21793,-0.09592 0.377275,0.02663 0.254863,0.196006 0.408925,0.254138 0.844523,0.318663 0.224808,0.0333 0.414147,0.05514 0.420753,0.04853 0.03092,-0.03092 -0.06047,-0.671744 -0.109761,-0.769593 -0.0299,-0.05936 -0.04801,-0.114273 -0.04024,-0.122039 0.0078,-0.0078 0.02395,-0.09313 0.03596,-0.189692 l 0.02184,-0.175571 0.148773,-0.01537 c 0.0904,-0.0093 0.185616,-0.04283 0.242667,-0.08535 0.100147,-0.07464 0.159075,-0.06489 0.159075,0.02632 0,0.08929 0.04764,0.09439 0.08643,0.0093 0.03275,-0.07187 0.01884,-0.105929 -0.172719,-0.423162 -0.273564,-0.453028 -0.309042,-0.542371 -0.308367,-0.776536 5.52e-4,-0.190795 -0.0019,-0.196631 -0.176879,-0.425775 -0.232222,-0.304058 -0.351057,-0.532811 -0.351057,-0.675768 0,-0.06257 0.04498,-0.218468 0.100354,-0.347848 0.05519,-0.128955 0.115835,-0.306644 0.134755,-0.394866 l 0.0344,-0.160403 -0.104994,-0.107523 c -0.144854,-0.148344 -0.137286,-0.184437 0.03637,-0.173466 0.124501,0.0079 0.141364,0.0018 0.141364,-0.05059 0,-0.07118 -0.233254,-0.195876 -0.505937,-0.270478 -0.273108,-0.07472 -1.213067,-0.102973 -1.507812,-0.04532 -0.181412,0.03548 -0.237128,0.03711 -0.272269,0.0079 -0.0243,-0.02017 -0.168256,-0.280568 -0.319902,-0.578669 -0.151646,-0.298101 -0.381269,-0.7228 -0.510273,-0.943776 -0.377475,-0.64659 -0.480914,-0.87467 -0.494673,-1.090744 -0.01118,-0.175628 -0.0065,-0.192156 0.0785,-0.277156 0.08827,-0.08827 0.161095,-0.108829 0.256221,-0.07233 0.08024,0.03079 0.05224,0.09625 -0.07146,0.167053 -0.06519,0.03732 -0.125234,0.0851 -0.133423,0.106179 -0.0266,0.06846 0.07028,0.07355 0.179003,0.0094 0.121694,-0.0718 0.162258,-0.07816 0.162182,-0.02541 -2.9e-5,0.02046 -0.0603,0.07526 -0.133925,0.121777 -0.133429,0.0843 -0.17657,0.168393 -0.08638,0.168393 0.02612,0 0.08304,-0.02459 0.126484,-0.05464 0.132037,-0.09133 0.146505,-0.09553 0.164788,-0.04789 0.01236,0.03221 -0.02672,0.0735 -0.130806,0.138202 -0.08164,0.05075 -0.148432,0.104081 -0.148432,0.118517 0,0.06215 0.09505,0.05327 0.221218,-0.02067 0.127818,-0.07491 0.135915,-0.07617 0.135915,-0.02126 0,0.03516 -0.04737,0.08975 -0.119044,0.137175 -0.11442,0.07572 -0.15936,0.167431 -0.08184,0.167022 0.02046,-1.23e-4 0.07738,-0.0268 0.126485,-0.05933 0.169692,-0.112382 0.222695,-0.04493 0.08928,0.113617 -0.0852,0.101254 -0.0935,0.160858 -0.02976,0.213755 0.02455,0.02038 0.04464,0.06308 0.04464,0.09488 0,0.07298 0.05137,0.174613 0.117506,0.232487 0.02806,0.02455 0.06638,0.09882 0.08517,0.165032 0.01878,0.06621 0.08191,0.17618 0.140274,0.244369 0.0661,0.07722 0.122462,0.186715 0.14945,0.290328 0.02383,0.09149 0.06423,0.206772 0.08978,0.256177 0.04228,0.08177 0.05764,0.08883 0.171112,0.07869 0.08032,-0.0072 0.172297,0.0098 0.258586,0.04763 0.109975,0.04825 0.235043,0.06276 0.699384,0.08111 0.531726,0.02101 0.585156,0.02857 0.895605,0.126669 0.527024,0.16653 0.667254,0.174905 0.666475,0.0398 -2.14e-4,-0.03573 -0.123119,-0.239059 -0.273139,-0.45185 -0.934839,-1.325996 -1.455299,-2.222417 -1.84887,-3.184431 -0.419288,-1.024872 -0.451794,-1.518565 -0.14284,-2.169354 0.365694,-0.770305 1.298291,-1.512135 2.246396,-1.786885 0.423991,-0.122868 0.513211,-0.09523 0.333768,0.103393 -0.05864,0.0649 -0.106614,0.122231 -0.106614,0.127392 0,0.0052 0.107654,-0.01827 0.239229,-0.05208 0.210033,-0.05396 0.242651,-0.05602 0.26727,-0.01691 0.02165,0.03439 -0.02103,0.0882 -0.187147,0.235953 -0.118353,0.105271 -0.395247,0.369581 -0.61532,0.587356 l -0.400131,0.395954 0.221565,0.165541 c 0.121861,0.09105 0.225621,0.177062 0.230577,0.191144 0.01588,0.04513 -0.05425,0.06749 -0.29669,0.09462 -0.260469,0.02914 -0.419897,0.08437 -0.522903,0.181138 -0.07841,0.07366 -0.08474,0.133918 -0.02327,0.221668 0.03895,0.05561 0.03895,0.06722 0,0.09955 -0.05808,0.04821 -0.05613,0.177453 0.004,0.263281 0.03538,0.05052 0.03931,0.07743 0.01488,0.101857 -0.06069,0.0607 -0.0344,0.134751 0.07096,0.199868 0.119632,0.07394 0.128443,0.103955 0.04381,0.149251 -0.07078,0.03788 -0.05254,0.08133 0.0506,0.120545 0.05614,0.02134 0.07246,0.04755 0.06836,0.109768 -0.0086,0.130587 -0.0017,0.156134 0.04238,0.156134 0.0455,0 0.07759,0.06254 0.07759,0.151239 0,0.0314 0.01339,0.05709 0.02976,0.05709 0.01637,0 0.02976,0.03192 0.02976,0.07093 0,0.0459 0.021,0.07642 0.05952,0.0865 0.04559,0.01192 0.05952,0.04059 0.05952,0.122515 0,0.08711 0.01104,0.10695 0.05952,0.10695 0.04966,0 0.05952,0.01984 0.05952,0.119788 0,0.109289 0.0078,0.121353 0.08928,0.137645 0.08901,0.0178 0.101175,0.03647 0.0905,0.138883 -0.0031,0.02974 0.02917,0.08632 0.07171,0.125747 l 0.07735,0.07168 -0.06026,0.06026 c -0.07737,0.07737 -0.07561,0.160354 0.0071,0.333931 0.08602,0.180557 0.605667,0.784007 1.152857,1.338782 0.425483,0.431381 0.434456,0.438367 0.639862,0.498107 0.11458,0.03333 0.257839,0.09439 0.318352,0.135696 0.101012,0.06895 0.172705,0.09466 0.172705,0.06193 0,-0.0072 -0.02864,-0.06172 -0.06364,-0.121039 -0.08689,-0.147271 -0.110804,-0.473904 -0.04413,-0.602835 0.02654,-0.05132 0.04825,-0.124585 0.04825,-0.162822 0,-0.08138 0.293188,-0.742269 0.368109,-0.82977 0.02967,-0.03466 0.07881,-0.05588 0.116839,-0.05047 0.05407,0.0077 0.06512,0.02769 0.06276,0.113499 -0.0021,0.07709 -0.06643,0.202314 -0.247411,0.481792 -0.231735,0.357855 -0.242254,0.381229 -0.200904,0.446415 0.04796,0.07561 0.02827,0.163568 -0.05142,0.229711 -0.07066,0.05864 -0.05951,0.09772 0.05363,0.187991 0.09463,0.07551 0.133865,0.153946 0.179024,0.35791 0.01722,0.07776 0.0267,0.08184 0.190276,0.08184 0.316891,0 0.559622,-0.174415 0.723961,-0.520203 0.08213,-0.172822 0.184598,-0.219324 0.387809,-0.176002 0.113861,0.02427 0.132559,0.04209 0.215332,0.205148 0.110856,0.218383 0.310909,0.419321 0.458201,0.46023 0.06039,0.01677 0.179855,0.03057 0.265478,0.03066 0.145652,1.46e-4 0.156845,-0.0051 0.173798,-0.08168 0.04516,-0.203964 0.08439,-0.282404 0.179025,-0.35791 0.117391,-0.09367 0.124154,-0.125831 0.04208,-0.200109 -0.06525,-0.05905 -0.07909,-0.191738 -0.02558,-0.245242 0.02541,-0.02541 -0.03099,-0.133468 -0.224471,-0.430047 -0.202428,-0.310296 -0.256525,-0.41545 -0.249706,-0.485391 0.007,-0.07181 0.02419,-0.09107 0.08785,-0.09844 0.06058,-0.007 0.09052,0.01045 0.127606,0.0744 0.107763,0.185821 0.322091,0.68625 0.341699,0.797825 0.01151,0.06547 0.03822,0.150995 0.05937,0.190047 0.0566,0.104495 0.02904,0.409996 -0.0508,0.563165 -0.03628,0.06961 -0.06597,0.132855 -0.06597,0.140535 0,0.03349 0.07079,0.0084 0.172705,-0.06114 0.06051,-0.04131 0.203772,-0.102261 0.318352,-0.135452 0.20657,-0.05984 0.212121,-0.06421 0.658008,-0.518438 0.792819,-0.807649 1.202057,-1.325594 1.202057,-1.521362 0,-0.03905 -0.02712,-0.09812 -0.06026,-0.131264 l -0.06026,-0.06026 0.07768,-0.07199 c 0.0501,-0.04643 0.07174,-0.09107 0.06094,-0.125747 -0.02262,-0.07266 0.01043,-0.115051 0.108387,-0.139025 0.07222,-0.01768 0.08184,-0.03396 0.08184,-0.138507 0,-0.09864 0.01,-0.118477 0.05952,-0.118477 0.04848,0 0.05952,-0.01984 0.05952,-0.10695 0,-0.08192 0.01393,-0.110593 0.05952,-0.122515 0.03391,-0.0089 0.05952,-0.0406 0.05952,-0.07374 0,-0.032 0.02086,-0.07904 0.04635,-0.10453 0.02549,-0.02549 0.03979,-0.06346 0.03177,-0.08436 -0.008,-0.0209 0.0113,-0.06143 0.04293,-0.09006 0.03517,-0.03183 0.05752,-0.09101 0.05752,-0.152338 0,-0.07851 0.01553,-0.106192 0.07151,-0.127476 0.101005,-0.0384 0.118654,-0.08208 0.04837,-0.119697 -0.08464,-0.0453 -0.07583,-0.07531 0.04381,-0.149251 0.10594,-0.06547 0.131627,-0.139199 0.06998,-0.200847 -0.02574,-0.02574 -0.02206,-0.05269 0.01488,-0.109069 0.06095,-0.09302 0.06317,-0.206793 0.005,-0.25509 -0.03895,-0.03233 -0.03895,-0.04394 0,-0.09955 0.06146,-0.08775 0.05514,-0.148007 -0.02327,-0.221668 -0.104207,-0.0979 -0.277623,-0.157943 -0.50952,-0.17642 -0.207249,-0.01651 -0.315942,-0.04831 -0.315942,-0.09242 0,-0.01212 0.09375,-0.0922 0.208327,-0.177945 0.11458,-0.08575 0.208327,-0.173136 0.208327,-0.194201 0,-0.04032 -0.563771,-0.603638 -0.966606,-0.965827 -0.190824,-0.17157 -0.230106,-0.220857 -0.200008,-0.250955 0.0301,-0.0301 0.08383,-0.02554 0.273587,0.02321 0.25576,0.06571 0.255477,0.06604 0.09516,-0.111546 -0.144128,-0.159652 -0.02488,-0.181916 0.366652,-0.06846 0.333766,0.09672 0.736118,0.28948 1.0562,0.506003 0.340422,0.230282 0.368465,0.252832 0.620944,0.499311 0.648792,0.633374 0.905637,1.386197 0.720246,2.111069 -0.159031,0.621805 -0.619625,1.650038 -1.090597,2.434655 -0.252178,0.420117 -0.907623,1.406367 -1.185572,1.783933 -0.09713,0.131945 -0.136656,0.212502 -0.130446,0.265875 0.0083,0.07159 0.01859,0.07627 0.157714,0.07192 0.08184,-0.0026 0.299148,-0.05234 0.4829,-0.110618 0.26426,-0.08382 0.401119,-0.109434 0.654742,-0.122556 0.176357,-0.0091 0.438572,-0.02266 0.582701,-0.03008 0.161304,-0.0083 0.310048,-0.0344 0.386893,-0.06789 0.07772,-0.03386 0.171896,-0.05019 0.249502,-0.04326 0.112032,0.01001 0.129098,0.0026 0.168471,-0.07358 0.0241,-0.0466 0.06305,-0.158375 0.08655,-0.248397 0.02515,-0.09631 0.09261,-0.229559 0.163901,-0.323754 0.06664,-0.08804 0.129692,-0.205563 0.14012,-0.261154 0.01043,-0.05559 0.03881,-0.10869 0.06306,-0.117998 0.05793,-0.02223 0.131181,-0.166301 0.131181,-0.258017 0,-0.03998 0.02009,-0.0804 0.04464,-0.08983 0.06583,-0.02526 0.05444,-0.10292 -0.02976,-0.202992 -0.133412,-0.158551 -0.08041,-0.225999 0.08928,-0.113617 0.04911,0.03252 0.106024,0.05922 0.126485,0.05933 0.07752,4.05e-4 0.03258,-0.0913 -0.08184,-0.167022 -0.06825,-0.04517 -0.119044,-0.102489 -0.119044,-0.134347 0,-0.07177 0.0085,-0.0705 0.148706,0.0223 0.116114,0.07684 0.22224,0.07966 0.191749,0.0051 -0.0086,-0.02108 -0.07518,-0.07453 -0.147904,-0.118777 -0.08989,-0.05469 -0.126736,-0.09477 -0.115071,-0.125167 0.01434,-0.03737 0.03618,-0.03271 0.132934,0.02837 0.06368,0.0402 0.136129,0.07308 0.161007,0.07308 0.08814,0 0.04341,-0.08497 -0.08864,-0.168393 -0.07363,-0.04652 -0.133896,-0.101316 -0.133925,-0.121777 -8.9e-5,-0.05386 0.0533,-0.04587 0.168315,0.02522 0.103691,0.06408 0.199364,0.05899 0.17287,-0.0092 -0.0082,-0.02108 -0.06823,-0.06886 -0.133422,-0.106178 -0.1237,-0.07081 -0.151698,-0.136262 -0.07146,-0.167054 0.09437,-0.03621 0.167667,-0.01623 0.252823,0.06893 0.167898,0.167897 0.107684,0.468261 -0.197356,0.984475 -0.204651,0.346327 -0.514332,0.915988 -0.744185,1.368935 -0.09552,0.188239 -0.205695,0.394082 -0.244825,0.45743 -0.07089,0.114767 -0.07164,0.115092 -0.209881,0.09085 -0.236362,-0.04145 -1.367168,-0.0323 -1.567265,0.01268 -0.26217,0.05894 -0.565459,0.212995 -0.565459,0.287229 0,0.05242 0.01686,0.05846 0.141365,0.05059 0.173526,-0.01096 0.181218,0.02513 0.03686,0.172962 -0.102018,0.104476 -0.103837,0.110516 -0.07653,0.254224 0.01539,0.08096 0.07581,0.258879 0.134262,0.39537 0.05862,0.136867 0.105993,0.297036 0.105633,0.357133 -9.44e-4,0.157078 -0.09358,0.339632 -0.327814,0.645986 -0.188448,0.246471 -0.205384,0.280352 -0.200839,0.401773 0.01033,0.276013 -0.03037,0.386861 -0.298299,0.812373 -0.174116,0.276521 -0.182734,0.351566 -0.04157,0.361966 0.03562,0.0026 0.09285,0.03019 0.127183,0.06126 0.03701,0.03349 0.125033,0.06279 0.216202,0.07197 l 0.153777,0.01547 0.01851,0.172276 c 0.01018,0.09475 0.02635,0.180113 0.03593,0.189691 0.0096,0.0096 -0.0072,0.06598 -0.03729,0.125335 -0.05459,0.107699 -0.146386,0.732626 -0.112578,0.766435 0.0096,0.0096 0.143855,-0.004 0.298254,-0.03032 0.154399,-0.02632 0.319622,-0.04785 0.367162,-0.04785 0.107163,0 0.461976,-0.168907 0.617108,-0.293771 0.142888,-0.115009 0.260819,-0.121087 0.363186,-0.01872 0.165951,0.165951 0.237761,0.05912 0.260074,-0.386894 0.0098,-0.196042 0.0581,-0.530334 0.120382,-0.833308 0.316815,-1.541173 0.409223,-2.252981 0.341931,-2.633852 -0.01591,-0.09003 -0.04024,-0.246971 -0.05407,-0.348765 -0.02407,-0.177106 -0.124736,-0.395261 -0.182388,-0.395261 -0.01503,0 -0.02733,-0.01339 -0.02733,-0.02976 0,-0.01637 0.02416,-0.02976 0.05368,-0.02976 0.07065,0 0.229637,0.166409 0.284339,0.297611 0.03999,0.09592 0.05289,0.103821 0.163002,0.09983 0.186098,-0.0067 0.192383,-0.01744 0.170082,-0.28958 -0.01876,-0.228964 -0.01573,-0.247292 0.05722,-0.345522 0.07379,-0.09936 0.09553,-0.157156 0.165289,-0.439383 0.02527,-0.102241 0.05263,-0.137366 0.14285,-0.183391 0.08088,-0.04126 0.130706,-0.09774 0.181049,-0.205224 0.06534,-0.139506 0.154593,-0.214069 0.25624,-0.214069 0.02333,0 0.09302,-0.07646 0.154857,-0.169909 0.08629,-0.130398 0.134426,-0.174406 0.207004,-0.189249 0.127108,-0.026 0.26483,-0.139715 0.641984,-0.530094 0.357533,-0.370069 0.420762,-0.472875 0.470829,-0.765533 0.04221,-0.246719 0.07151,-0.309443 0.144583,-0.309443 0.07074,0 0.09142,-0.05651 0.09142,-0.249791 0,-0.206671 -0.09092,-0.310539 -0.252969,-0.289001 -0.01637,0.0022 -0.003,-0.01716 0.02976,-0.04297 0.0697,-0.05494 0.206451,-0.03785 0.28805,0.03599 0.110157,0.09969 0.123426,0.331048 0.0291,0.507306 -0.08715,0.162836 -0.01548,0.167819 0.152744,0.01062 l 0.125332,-0.117121 -0.0744,-0.02877 -0.0744,-0.02877 0.07329,-0.02823 c 0.238404,-0.09183 0.285887,0.1417 0.06092,0.299627 -0.09978,0.07005 -0.119334,0.100493 -0.119334,0.185817 0,0.08384 -0.03639,0.143222 -0.203989,0.332882 -0.239852,0.271419 -0.561588,0.580897 -0.963275,0.926575 -0.159122,0.136935 -0.297539,0.274891 -0.307593,0.30657 -0.01647,0.05189 -0.114055,0.110389 -0.259509,0.155567 -0.02908,0.009 -0.07819,0.0755 -0.109141,0.147699 -0.06043,0.140972 -0.08701,0.166141 -0.224129,0.212239 -0.06685,0.02247 -0.100508,0.06226 -0.137451,0.162451 -0.02691,0.07298 -0.09003,0.167004 -0.140263,0.208944 -0.105444,0.08803 -0.154577,0.198499 -0.154577,0.347553 0,0.05991 -0.02555,0.137457 -0.05952,0.180642 -0.05985,0.07609 -0.08317,0.27597 -0.03219,0.27597 0.04364,0 0.141513,-0.179676 0.192569,-0.353519 0.05517,-0.187865 0.09359,-0.241701 0.172484,-0.241701 0.05234,0 0.05686,0.01873 0.04844,0.20088 l -0.0093,0.200881 0.145471,0.01671 c 0.102531,0.01178 0.161829,0.03691 0.200887,0.08515 0.07895,0.0975 0.06888,0.137437 -0.03667,0.145481 -0.266476,0.0203 -0.439476,0.24176 -0.490737,0.62819 -0.01796,0.13539 -0.01275,0.150671 0.09013,0.264554 l 0.109194,0.120864 -0.06866,0.03529 c -0.03776,0.01941 -0.112185,0.07648 -0.165382,0.126837 -0.136586,0.129281 -0.130004,0.22708 0.02347,0.34863 l 0.120188,0.09519 -0.17971,0.168373 c -0.19768,0.18521 -0.228316,0.288424 -0.1301,0.43832 0.04812,0.07343 0.04711,0.07771 -0.03345,0.141945 -0.0894,0.07128 -0.0914,0.06495 0.0615,0.19464 0.04623,0.03921 0.04463,0.04657 -0.02129,0.09836 -0.146841,0.115367 -0.234938,0.207804 -0.234938,0.246512 0,0.02198 0.03435,0.06698 0.07633,0.1 0.0897,0.07056 0.07634,0.111208 -0.08877,0.27005 -0.114658,0.110307 -0.132889,0.180828 -0.06197,0.23969 0.0647,0.0537 0.05502,0.119833 -0.03063,0.209235 -0.04747,0.04954 -0.07854,0.120105 -0.08413,0.191008 -0.0053,0.06699 -0.02898,0.123703 -0.05865,0.140307 -0.06942,0.03885 -0.13908,0.183578 -0.13908,0.288968 0,0.108577 -0.153165,0.318277 -0.30448,0.416868 -0.09467,0.06168 -0.103162,0.07636 -0.0658,0.113729 0.0236,0.0236 0.0429,0.08459 0.0429,0.135534 0,0.27057 -0.832639,0.715388 -1.497508,0.800008 -0.481283,0.06125 -0.441002,0.04664 -0.4237,0.153735 0.02632,0.162936 0.04216,0.295469 0.06294,0.526712 0.02387,0.265642 0.07677,0.409102 0.16255,0.440835 0.05754,0.02129 0.03985,0.0494 -0.210488,0.334342 -0.276399,0.314611 -0.355632,0.442876 -0.355632,0.57571 0,0.04019 -0.03508,0.11477 -0.07796,0.165731 -0.136966,0.162775 -0.237938,0.187097 -0.793249,0.191069 l -0.499201,0.0036 0.01794,0.08928 c 0.0099,0.0491 0.04701,0.149549 0.08255,0.223208 0.07547,0.156449 0.0062,0.149297 0.774519,0.08 0.624708,-0.05634 1.611273,-0.05137 1.775132,0.0089 0.141159,0.05196 0.238088,0.14508 0.238088,0.228732 0,0.03807 0.01142,0.06921 0.02537,0.06921 0.04176,0 0.283737,0.325685 0.431175,0.580341 0.07582,0.130948 0.192469,0.372013 0.25923,0.535698 0.137748,0.337733 0.260394,0.511366 0.475219,0.672783 0.163218,0.122639 0.159957,0.155442 -0.0116,0.116749 -0.08238,-0.01858 -0.115783,-0.0152 -0.126531,0.01281 -0.01904,0.04962 0.296096,0.73185 0.426719,0.923797 0.0557,0.08184 0.148566,0.208361 0.206379,0.281151 0.0941,0.118472 0.100023,0.136068 0.05654,0.167861 -0.04442,0.03248 -0.04307,0.04606 0.01585,0.15911 0.03543,0.06798 0.05815,0.129865 0.05049,0.13753 -0.0077,0.0077 -0.07293,-0.03296 -0.14504,-0.09028 -0.07211,-0.05732 -0.142822,-0.104346 -0.157145,-0.104505 -0.05108,-5.62e-4 0.014,0.194205 0.101104,0.302595 0.06877,0.08558 0.08862,0.140193 0.08862,0.243824 0,0.12252 0.05327,0.227079 0.11569,0.227079 0.03541,0 0.152159,0.225229 0.152159,0.293536 0,0.03575 0.03482,0.08379 0.08184,0.11291 0.120038,0.07434 0.156246,0.129169 0.156246,0.236604 0,0.07653 0.02429,0.115216 0.11994,0.190969 0.06597,0.05225 0.141335,0.136368 0.167485,0.186935 0.02615,0.05057 0.109449,0.167815 0.18511,0.260548 0.193634,0.237326 0.700332,0.943941 0.823237,1.148044 0.104721,0.173909 0.124336,0.278227 0.07615,0.404976 -0.0216,0.0568 -0.007,0.102042 0.0744,0.231207 0.123653,0.196112 0.131433,0.303723 0.02545,0.352013 -0.04169,0.019 -0.106716,0.03454 -0.144499,0.03454 -0.05192,0 -0.07545,0.02353 -0.09633,0.09635 -0.02842,0.09911 -0.137311,0.178168 -0.20802,0.151034 -0.0294,-0.01128 -0.02257,-0.0294 0.02584,-0.0686 0.05505,-0.04458 0.06765,-0.09003 0.07716,-0.278398 0.01096,-0.216996 0.0083,-0.227764 -0.07366,-0.298251 -0.08267,-0.0711 -0.08544,-0.0829 -0.09991,-0.425409 -0.0144,-0.340898 -0.01863,-0.359152 -0.131074,-0.56495 -0.138064,-0.252698 -0.519804,-0.785612 -0.583191,-0.814141 -0.230944,-0.10394 -0.226921,-0.09875 -0.281476,-0.363214 -0.0131,-0.06348 -0.03851,-0.08465 -0.120027,-0.09994 -0.08742,-0.0164 -0.108069,-0.03616 -0.133519,-0.127788 -0.01656,-0.05961 -0.03018,-0.138177 -0.03027,-0.174585 -1.23e-4,-0.04321 -0.03086,-0.08207 -0.08857,-0.111913 -0.111547,-0.05768 -0.149687,-0.128789 -0.149687,-0.279069 0,-0.09294 -0.01709,-0.132285 -0.07842,-0.180523 -0.04313,-0.03392 -0.09563,-0.06168 -0.116679,-0.06168 -0.04436,0 -0.07972,-0.135006 -0.07204,-0.275014 0.01,-0.182408 -7.76e-4,-0.227676 -0.07407,-0.311107 l -0.07335,-0.0835 -0.07357,0.08928 c -0.04046,0.0491 -0.09785,0.139351 -0.127532,0.200545 -0.06649,0.137086 -0.113366,0.145741 -0.08244,0.01522 0.0126,-0.0532 0.02417,-0.24404 0.0257,-0.424094 l 0.0028,-0.327372 -0.266479,-0.535698 c -0.146563,-0.294633 -0.342681,-0.669622 -0.435816,-0.833308 -0.161241,-0.283383 -0.332394,-0.734761 -0.369297,-0.973938 -0.01704,-0.110424 -0.01761,-0.110816 -0.142381,-0.09762 -0.457011,0.04833 -0.709018,0.08576 -0.722315,0.107273 -0.0085,0.01368 0.02445,0.162582 0.07312,0.330893 0.295848,1.023045 0.333913,1.338874 0.347152,2.880351 0.0071,0.825837 -0.0027,1.352636 -0.03305,1.770782 -0.02373,0.327371 -0.04926,0.611532 -0.05673,0.631468 -0.01851,0.0494 -0.0038,0.05621 0.346222,0.160195 0.52525,0.156039 0.90805,0.372207 0.921042,0.520111 0.002,0.02329 0.0063,0.05909 0.0094,0.07955 0.0031,0.02046 -0.0054,0.0601 -0.01901,0.08809 -0.01856,0.03824 -0.0022,0.06755 0.06592,0.117889 0.28435,0.210229 0.442093,0.762979 0.491152,1.721049 0.0096,0.188238 0.02288,0.389125 0.02943,0.446415 0.146693,1.283137 0.215687,1.72779 0.389545,2.510532 0.05765,0.259544 0.09659,0.480122 0.08654,0.490172 -0.01005,0.01005 -0.06443,0.0143 -0.120841,0.0094 -0.100754,-0.0087 -0.102567,-0.0068 -0.102567,0.106236 0,0.06329 0.02009,0.192195 0.04464,0.286462 0.02455,0.09426 0.04464,0.231537 0.04464,0.305047 0,0.07351 0.02523,0.183345 0.05606,0.244076 0.03083,0.06073 0.06431,0.170114 0.07439,0.243076 0.01326,0.09591 0.04674,0.161865 0.120863,0.238089 0.06217,0.06394 0.117395,0.161349 0.140298,0.247501 0.02909,0.109443 0.06992,0.169183 0.177787,0.260135 0.08322,0.07017 0.147609,0.152623 0.158728,0.203247 0.01029,0.04685 0.133705,0.257904 0.274258,0.46901 0.140552,0.211104 0.323096,0.523916 0.405654,0.695135 0.130429,0.270498 0.151728,0.340719 0.162487,0.535699 0.01189,0.215427 -0.0082,0.311068 -0.08901,0.424195 -0.0306,0.04284 -0.02275,0.06529 0.04909,0.140269 0.09245,0.0965 0.119028,0.240749 0.07356,0.39929 -0.05014,0.174811 -0.259599,0.326327 -0.505496,0.365646 l -0.126995,0.02031 0.122604,-0.110765 c 0.212816,-0.192268 0.237614,-0.43763 0.06235,-0.616922 -0.0833,-0.08521 -0.08916,-0.104649 -0.07388,-0.245091 0.0091,-0.0839 0.02535,-0.327173 0.03605,-0.540619 0.01918,-0.38261 0.0183,-0.390359 -0.06257,-0.549939 -0.04511,-0.08902 -0.167327,-0.297752 -0.271591,-0.463843 -0.153372,-0.24432 -0.205815,-0.305232 -0.274645,-0.319 -0.08917,-0.01783 -0.182631,-0.162718 -0.182631,-0.283125 0,-0.124631 -0.05425,-0.207322 -0.149781,-0.228303 -0.112723,-0.02476 -0.177591,-0.153529 -0.177591,-0.352541 0,-0.10738 -0.01363,-0.140385 -0.0744,-0.180206 -0.06736,-0.04413 -0.0744,-0.06802 -0.0744,-0.252299 0,-0.182857 -0.0094,-0.215312 -0.0922,-0.319247 -0.0839,-0.105288 -0.09054,-0.129081 -0.07375,-0.2645 0.05298,-0.427208 0.05463,-0.566638 0.0072,-0.606019 -0.0402,-0.03336 -0.05259,-0.02495 -0.08896,0.06042 -0.02324,0.05455 -0.09996,0.176414 -0.170486,0.270811 -0.153875,0.205957 -0.211624,0.17453 -0.09307,-0.05065 0.07238,-0.137457 0.0799,-0.183535 0.08535,-0.522758 0.0033,-0.204607 -0.0055,-0.432279 -0.01942,-0.505937 -0.01397,-0.07366 -0.03405,-0.274546 -0.04463,-0.446416 -0.02294,-0.372661 -0.06792,-0.6318 -0.240251,-1.383888 -0.153863,-0.671501 -0.222041,-1.218364 -0.22209,-1.781406 -3e-5,-0.382629 -0.0038,-0.410557 -0.05212,-0.386893 -0.07121,0.03487 -0.392309,0.02447 -0.483617,-0.01566 -0.04092,-0.01799 -0.112175,-0.06296 -0.158341,-0.09993 -0.07141,-0.05719 -0.119466,-0.06723 -0.32185,-0.06723 h -0.23791 l -0.114787,0.446416 c -0.281055,1.093038 -0.7776,2.204811 -1.276033,2.857059 -0.182515,0.238839 -0.654197,0.724052 -0.895415,0.9211 -0.593785,0.485058 -1.251136,0.760399 -1.815386,0.760399 -0.235789,0 -0.239653,-0.0012 -0.239653,-0.0744 0,-0.06283 -0.01389,-0.0744 -0.08928,-0.0744 -0.0754,0 -0.08928,0.01158 -0.08928,0.0744 0,0.07339 -0.0034,0.0744 -0.245529,0.07396 -0.566213,-10e-4 -1.2143,-0.272757 -1.807024,-0.757682 -0.243787,-0.19945 -0.715001,-0.684032 -0.897902,-0.923376 -0.503309,-0.65863 -0.99497,-1.759679 -1.275786,-2.857059 l -0.114237,-0.446416 h -0.238308 c -0.202798,0 -0.250817,0.01002 -0.322248,0.06723 -0.04617,0.03697 -0.117421,0.08195 -0.158342,0.09993 -0.09131,0.04014 -0.412403,0.05054 -0.483617,0.01566 -0.04799,-0.0235 -0.05208,1.13e-4 -0.05208,0.300728 0,0.366093 -0.04642,1.016827 -0.08864,1.242589 -0.01531,0.08184 -0.08145,0.383895 -0.14699,0.671227 -0.151392,0.663725 -0.201481,0.954637 -0.225189,1.307882 -0.01044,0.155501 -0.03246,0.369781 -0.04894,0.476177 -0.03982,0.257125 -0.03967,0.731335 2.92e-4,0.879715 0.01764,0.06552 0.05201,0.14549 0.07638,0.177721 0.02437,0.03223 0.04473,0.0892 0.04525,0.1266 8.78e-4,0.06308 -0.0055,0.06063 -0.08852,-0.03389 -0.04921,-0.05604 -0.134215,-0.176212 -0.188911,-0.267043 -0.08696,-0.144416 -0.104877,-0.159722 -0.142685,-0.121913 -0.04393,0.04393 -0.04235,0.09119 0.01942,0.57806 0.01943,0.153159 0.01483,0.171126 -0.07153,0.279381 -0.08276,0.103748 -0.09229,0.136533 -0.09229,0.31745 0,0.181259 -0.0076,0.207294 -0.07489,0.256316 -0.06355,0.0463 -0.0767,0.08326 -0.08681,0.244044 -0.01307,0.207849 -0.03319,0.241368 -0.173586,0.289069 -0.07748,0.02633 -0.09877,0.05322 -0.117771,0.148806 -0.04281,0.215308 -0.115588,0.342004 -0.206953,0.360277 -0.06734,0.01347 -0.121251,0.07631 -0.273445,0.318759 -0.356945,0.568609 -0.355654,0.564698 -0.334485,1.013026 0.0101,0.21386 0.02615,0.457479 0.03567,0.541375 0.01598,0.14085 0.01038,0.159626 -0.07316,0.245091 -0.194559,0.19903 -0.156596,0.454918 0.09668,0.651704 0.07767,0.06035 0.0799,0.06671 0.02336,0.06671 -0.121057,0 -0.348404,-0.09604 -0.444605,-0.187816 -0.173525,-0.165546 -0.198248,-0.451625 -0.05109,-0.591183 0.08828,-0.08372 0.08923,-0.09458 0.01725,-0.196881 -0.08452,-0.120121 -0.0999,-0.275661 -0.04897,-0.495271 0.0683,-0.294488 0.345852,-0.819506 0.669742,-1.266865 0.07703,-0.106395 0.150066,-0.233624 0.162299,-0.28273 0.01226,-0.04922 0.08687,-0.149373 0.166287,-0.223208 0.106664,-0.09917 0.149672,-0.164274 0.165728,-0.250873 0.01383,-0.07461 0.06387,-0.162721 0.138208,-0.243368 0.08595,-0.09325 0.119663,-0.157944 0.128482,-0.246597 0.0066,-0.0661 0.04052,-0.17617 0.07543,-0.2446 0.04116,-0.08068 0.06301,-0.177813 0.06215,-0.276313 -6.74e-4,-0.08354 0.01809,-0.209282 0.04182,-0.279421 0.02373,-0.07014 0.04314,-0.188349 0.04314,-0.262691 v -0.135163 l -0.102567,0.0088 c -0.05641,0.0049 -0.11107,3.37e-4 -0.121461,-0.01006 -0.01039,-0.01039 0.02152,-0.197489 0.07091,-0.415772 0.143956,-0.636201 0.233278,-1.155796 0.316359,-1.840288 0.105023,-0.865261 0.09881,-0.802167 0.120189,-1.220202 0.04667,-0.912369 0.216836,-1.509294 0.47929,-1.681261 0.06472,-0.0424 0.07264,-0.06432 0.05737,-0.158643 -0.04233,-0.261395 0.300789,-0.487906 1.047899,-0.691776 0.193658,-0.05285 0.243002,-0.07719 0.231876,-0.114413 -0.102346,-0.342361 -0.130139,-3.262048 -0.03792,-3.983185 0.05204,-0.406958 0.127491,-0.746999 0.287977,-1.29792 0.05104,-0.175202 0.08588,-0.329742 0.07742,-0.343422 -0.0133,-0.02152 -0.265304,-0.05894 -0.722316,-0.107273 -0.124772,-0.01319 -0.125342,-0.0128 -0.14238,0.09762 -0.03786,0.245357 -0.209166,0.692333 -0.377571,0.985146 -0.194418,0.338044 -0.560118,1.063586 -0.653697,1.296925 -0.06716,0.16746 -0.08502,0.619188 -0.02864,0.724527 0.0375,0.07007 0.04412,0.184708 0.01064,0.184196 -0.01228,-1.8e-4 -0.04655,-0.05041 -0.07616,-0.111604 -0.02961,-0.06119 -0.08698,-0.149359 -0.12748,-0.195922 -0.06359,-0.0731 -0.08023,-0.0792 -0.1219,-0.04464 -0.06932,0.05749 -0.128008,0.213348 -0.108466,0.288075 0.0092,0.03519 0.0078,0.12368 -0.0032,0.196638 -0.01518,0.101229 -0.03537,0.137363 -0.08526,0.152548 -0.110867,0.03375 -0.169527,0.106064 -0.169527,0.208981 0,0.145312 -0.04633,0.240698 -0.138458,0.285077 -0.06099,0.02938 -0.08831,0.07039 -0.105692,0.158663 -0.04819,0.244719 -0.04862,0.245437 -0.157107,0.265788 -0.08233,0.01544 -0.107689,0.03646 -0.120815,0.100089 -0.05357,0.259667 -0.07748,0.291647 -0.258361,0.345516 -0.06342,0.01889 -0.352029,0.404894 -0.563534,0.753707 l -0.158285,0.26104 -0.01554,0.367423 c -0.01508,0.356683 -0.01797,0.36951 -0.09862,0.438881 -0.07281,0.06263 -0.08316,0.09262 -0.08377,0.24268 -7.87e-4,0.19394 0.03696,0.317197 0.109564,0.357829 0.04178,0.02338 0.04271,0.03036 0.0059,0.04447 -0.07401,0.0284 -0.182679,-0.0484 -0.211707,-0.149618 -0.02089,-0.07282 -0.04442,-0.09635 -0.09634,-0.09635 -0.121215,0 -0.220302,-0.06305 -0.220302,-0.14018 0,-0.07703 0.06582,-0.220672 0.151487,-0.330631 0.0414,-0.05314 0.04729,-0.08614 0.02555,-0.143302 -0.05045,-0.13269 -0.03026,-0.234838 0.08337,-0.421806 0.134117,-0.220681 0.728833,-1.048399 0.859014,-1.195565 0.05097,-0.05762 0.114179,-0.146838 0.14047,-0.198271 0.02629,-0.05143 0.101774,-0.13626 0.167741,-0.188506 0.09813,-0.07772 0.11994,-0.113479 0.11994,-0.196658 0,-0.106966 0.08406,-0.220707 0.163119,-0.220707 0.02424,0 0.05158,-0.03683 0.06074,-0.08184 0.02723,-0.133688 0.136734,-0.331901 0.193271,-0.349845 0.05874,-0.01864 0.08779,-0.09986 0.0884,-0.247121 2.25e-4,-0.06271 0.03149,-0.138365 0.08601,-0.208327 0.10336,-0.132645 0.167471,-0.303452 0.113734,-0.303017 -0.01961,1.46e-4 -0.09561,0.04795 -0.168898,0.1062 -0.14873,0.118218 -0.183121,0.09894 -0.09152,-0.05131 0.07363,-0.120777 0.07682,-0.166745 0.01245,-0.179483 -0.03906,-0.0077 -0.0277,-0.03596 0.05777,-0.143547 0.05852,-0.07366 0.15244,-0.200887 0.208715,-0.28273 0.126167,-0.183487 0.443709,-0.876769 0.424506,-0.926812 -0.01054,-0.02745 -0.04125,-0.02903 -0.123434,-0.0063 -0.145864,0.04028 -0.202923,-0.01072 -0.08337,-0.07451 0.213158,-0.113738 0.401332,-0.353903 0.520207,-0.663935 0.04916,-0.128209 0.150292,-0.346944 0.22474,-0.486076 0.145124,-0.271213 0.439059,-0.684504 0.486823,-0.684504 0.01598,0 0.02905,-0.03115 0.02905,-0.06921 0,-0.08778 0.100179,-0.179719 0.252969,-0.23217 0.158068,-0.05426 1.405818,-0.05203 1.919586,0.0034 0.572424,0.0618 0.540518,0.06643 0.613399,-0.08895 0.03455,-0.07366 0.07037,-0.174102 0.07959,-0.223208 l 0.01677,-0.08928 -0.481366,-0.0014 c -0.306002,-9.11e-4 -0.521483,-0.01513 -0.591483,-0.03902 -0.13446,-0.04589 -0.291657,-0.217642 -0.291657,-0.318667 0,-0.130665 -0.0759,-0.25992 -0.295922,-0.503946 -0.118068,-0.130948 -0.240239,-0.2734 -0.271489,-0.316558 -0.05613,-0.07752 -0.0561,-0.07866 0.0027,-0.09404 0.08182,-0.0214 0.137665,-0.172675 0.161528,-0.43759 0.01106,-0.122765 0.03074,-0.310259 0.04374,-0.416655 0.01412,-0.115593 0.01242,-0.200716 -0.0042,-0.21151 -0.01533,-0.0099 -0.137314,-0.02618 -0.271086,-0.0361 -0.535068,-0.03968 -1.288133,-0.350503 -1.537606,-0.634637 -0.103031,-0.117346 -0.123208,-0.286374 -0.03976,-0.333074 0.04303,-0.02408 0.03801,-0.03398 -0.0372,-0.07334 -0.09784,-0.05121 -0.256257,-0.210892 -0.306581,-0.309036 -0.01833,-0.03575 -0.03333,-0.100249 -0.03333,-0.143322 0,-0.09736 -0.04772,-0.193401 -0.127679,-0.256983 -0.03808,-0.03028 -0.06453,-0.09113 -0.07005,-0.161149 -0.0056,-0.07096 -0.03665,-0.141503 -0.08413,-0.191062 -0.08565,-0.0894 -0.09533,-0.155536 -0.03063,-0.209235 0.07093,-0.05886 0.05269,-0.129383 -0.06196,-0.23969 -0.165107,-0.158842 -0.178469,-0.19949 -0.08877,-0.27005 0.04198,-0.03302 0.07633,-0.07841 0.07633,-0.10087 0,-0.02246 -0.06696,-0.09849 -0.148789,-0.168966 -0.08184,-0.07047 -0.148798,-0.138467 -0.148806,-0.151094 -8e-6,-0.01263 0.03347,-0.03821 0.07439,-0.05686 0.09206,-0.04194 0.09584,-0.121898 0.0085,-0.179888 -0.06363,-0.04225 -0.06415,-0.04644 -0.01488,-0.121627 0.09966,-0.152102 0.06972,-0.254581 -0.128688,-0.440474 l -0.179711,-0.168373 0.120189,-0.09519 c 0.153469,-0.12155 0.160051,-0.219349 0.02347,-0.34863 -0.0532,-0.05035 -0.12762,-0.107429 -0.165382,-0.126837 l -0.06866,-0.03529 0.105859,-0.117175 c 0.124179,-0.13745 0.131073,-0.207673 0.04708,-0.4796 -0.07873,-0.254891 -0.234123,-0.400814 -0.443848,-0.416795 -0.106045,-0.0081 -0.11622,-0.04791 -0.03718,-0.145519 0.03906,-0.04824 0.09836,-0.07337 0.200887,-0.08515 l 0.145471,-0.01671 -0.0093,-0.200881 c -0.0084,-0.182151 -0.0039,-0.20088 0.04844,-0.20088 0.07889,0 0.11731,0.05384 0.172484,0.241701 0.05106,0.173843 0.148929,0.353519 0.192569,0.353519 0.04979,0 0.02794,-0.191941 -0.03219,-0.28273 -0.03252,-0.0491 -0.0593,-0.136156 -0.05951,-0.193446 -4.5e-4,-0.129467 -0.0602,-0.247211 -0.173967,-0.342939 -0.04807,-0.04045 -0.09655,-0.110409 -0.107733,-0.155471 -0.02517,-0.101425 -0.128582,-0.215855 -0.195064,-0.215855 -0.06436,0 -0.130694,-0.07605 -0.188564,-0.216186 -0.02544,-0.06161 -0.0703,-0.119508 -0.09969,-0.128657 -0.146268,-0.04554 -0.243579,-0.103832 -0.260066,-0.155781 -0.01006,-0.03168 -0.148383,-0.169714 -0.307396,-0.306745 -0.417176,-0.359504 -0.66853,-0.600722 -0.933854,-0.896197 -0.194531,-0.216636 -0.233608,-0.277031 -0.233608,-0.36104 0,-0.08184 -0.02107,-0.116705 -0.111604,-0.184687 -0.06138,-0.04609 -0.121443,-0.0979 -0.133469,-0.115136 -0.02746,-0.03935 -0.02929,-0.148823 -0.0029,-0.175179 z m 0.984595,20.250693 c 0.06471,0.02375 0.06696,0.01859 0.06696,-0.153035 0,-0.193219 -0.03238,-0.22341 -0.102718,-0.09576 -0.06179,0.112129 -0.04648,0.218622 0.03576,0.248799 z m 12.819564,-15.300442 c 0.07366,-0.07229 0.133925,-0.13742 0.133925,-0.144733 0,-0.03353 -0.263928,0.226203 -0.266779,0.262534 -5.88e-4,0.0075 0.0592,-0.04551 0.132854,-0.117801 z m 4.694803,15.300414 c 0.08451,-0.03105 0.09901,-0.121804 0.03824,-0.239316 -0.07143,-0.138133 -0.105205,-0.110427 -0.105205,0.08631 0,0.171634 0.0023,0.17678 0.06696,0.153007 z"
       id="path3228" />
  </g>
</svg>
