<svg xmlns="http://www.w3.org/2000/svg" version="1.1">
    <svg viewBox="-20 -20 150 150" id="beetle">
        <path style="stroke:#ffffff;stroke-width:0.194862;stroke-miterlimit:4;stroke-dasharray:none;stroke-opacity:1"
              d="m 42,-5 c -5.43317,0.736211 -11.63078,6.175962 -9.3266,12.126641 1.69349,5.302947 5.09598,9.780566 8.03192,14.418961 -2.85694,-0.834321 -9.06737,0.832987 -10.15572,-3.194477 -1.32436,-1.976923 -1.38986,-3.978037 -1.70747,-4.057598 0.67429,-1.073505 -1.46812,0.354885 0.0109,-1.315751 -2.3279,1.257617 1.14329,-1.331097 -1.28769,-0.499613 1.58373,-2.590278 -2.04695,1.209485 0.44459,2.616894 2.03372,3.498202 3.03689,8.325789 8.06126,6.618313 4.66692,0.118194 3.20399,1.970155 2.36758,5.428437 0.87166,1.94167 3.68491,7.486917 3.05018,7.683927 -4.43479,-0.33905 1.24283,6.907384 -3.8707,4.528903 -2.6715,-1.392662 -4.98622,-0.224613 -4.43246,-4.314719 -0.60791,-4.177791 -2.39086,-8.927701 -0.61531,-12.842282 -3.10863,4.072052 -2.02627,-4.389215 -5.44606,-5.023916 -2.34478,-1.594336 -6.79846,-5.696823 -4.51411,-8.13373 -2.16174,-0.427539 -0.8401,3.670737 -2.14757,1.094629 -0.42272,2.60895 4.57806,5.954466 6.80239,8.118 1.90463,1.012122 3.88486,7.322255 1.35567,2.805137 0.2599,1.977976 -2.82513,1.695028 0.0797,3.106601 0.55404,1.994048 -0.42777,2.657907 0.75832,4.123883 -1.02333,1.087251 1.01705,3.288311 0.62077,4.506058 0.33361,2.095901 1.71465,5.601458 3.01938,7.551358 0.93235,3.916729 9.6788,1.790101 5.70176,7.06204 1.32129,3.135703 4.12893,4.622673 6.78515,4.598943 -2.14213,3.463631 -9.73906,-1.902271 -11.26876,3.757602 -0.2807,2.326803 -4.06582,4.729791 -2.45488,5.516371 -0.59253,1.96714 -3.81183,5.61316 -1.3909,4.98838 -1.46227,4.04582 -4.56243,7.00921 -6.90735,10.69918 -0.8008,1.83121 -0.9241,4.17182 0.90533,4.29214 -0.44307,-2.67348 0.32573,-5.99357 2.51456,-8.12604 2.09817,-1.9689 3.39932,-4.67442 4.4487,-7.26618 1.82172,3.22841 0.17926,-3.6695 2.34629,-4.6359 1.50312,-2.17297 2.0303,-7.687152 5.17346,-4.717306 -2.12289,6.195766 -1.27406,12.961466 -1.21151,19.281366 -5.12422,0.55538 -6.24848,6.14703 -6.25787,10.521417 -0.22929,4.21245 -1.88426,8.79735 -1.03747,11.89543 -0.15026,4.87193 -5.21286,7.70296 -5.6643,12.47092 0.0528,1.40809 -0.0302,4.68627 1.83656,3.87675 -1.19863,-3.45515 0.18975,-8.16788 2.74559,-11.19562 2.15845,-1.07565 1.32638,-6.66451 2.43781,-6.54993 1.85142,3.11301 -0.40159,-4.26695 0.79089,-5.61061 1.44375,-3.3042 0.45892,-9.526857 2.50413,-11.228267 4.16156,-2.83215 3.92041,2.36886 5.11805,5.039207 2.10378,5.53113 6.7006,11.57421 13.16522,11.48976 2.6381,0.12596 7.76109,-1.19947 9.91105,-4.59851 3.2033,-3.48334 4.73686,-8.125277 5.85932,-12.635407 3.57082,-0.25006 5.29126,1.12144 4.52855,4.92052 1.1312,3.913347 1.70171,11.363707 1.6681,13.303477 1.72033,-3.08583 0.53432,3.49362 1.96076,4.4704 1.69878,3.16143 4.79805,6.2148 4.00601,10.33398 0.87099,1.72532 -1.912,3.68105 1.33051,1.61782 0.65714,-3.73511 -1.01249,-7.75834 -3.76892,-10.79024 -3.00642,-4.45983 -0.38546,-7.82362 -2.25771,-12.70265 -0.74074,-4.06676 -0.18043,-8.817527 -2.45276,-12.208757 -1.63687,-2.40445 -6.26735,-1.67371 -4.16575,-5.99369 0.13842,-5.39452 0.27489,-10.89815 -1.40698,-16.0909 4.58507,-1.937605 4.1063,5.1502 6.52413,7.71196 0.53969,1.83585 -0.529,4.10321 1.24959,2.12805 0.76801,2.64783 2.18439,5.02593 4.03786,6.95798 3.2353,1.17475 2.11671,8.62232 3.44311,7.96508 2.65841,-2.3884 -2.11044,-6.88715 -3.85121,-9.40518 -1.15719,-1.71304 -3.77738,-5.94141 -1.95609,-5.37573 -0.30886,-1.7909 -3.15161,-5.17099 -1.96079,-5.75569 -2.54447,-3.809248 -4.35513,-9.371857 -10.24088,-7.324631 -2.9334,1.608853 -5.58858,-2.150072 -1.51092,-1.315815 3.6316,-0.507125 4.99501,-5.05542 3.62912,-8.057625 5.06249,0.100336 7.12362,-3.502265 8.68558,-7.436429 0.8345,-2.626313 0.8332,-4.149658 1.5996,-6.717317 1.08102,-0.797352 -0.96303,-2.16016 0.75252,-2.88717 -1.81544,-2.483146 2.977,-3.462709 0.15072,-4.714251 0.003,-2.625688 -2.33471,3.630975 -1.10949,-0.363672 1.60257,-3.942431 6.07187,-5.69644 8.52294,-9.263566 1.19281,-2.321345 0.71714,-2.408336 -0.48809,-1.134589 0.8783,-2.440072 -1.69843,-3.093624 -0.26633,-0.367213 -1.08887,3.723721 -4.94054,5.678999 -7.37918,8.438699 -1.38338,2.031414 -1.17018,6.117461 -3.48998,3.185099 2.26359,4.605407 -0.57508,9.797744 -0.78338,14.597971 -0.22831,2.219172 -4.25832,1.883651 -6.60475,2.692557 0.35315,-2.27063 1.27322,-4.896463 -1.73011,-5.142546 1.63952,-3.618294 3.87982,-7.131378 2.77619,-10.909596 -1.82414,-3.62444 8.55776,0.587808 8.66465,-4.315609 0.67265,-2.024395 5.21933,-7.182383 1.93441,-7.55267 2.03627,1.583375 -1.42209,-0.110051 0.43854,1.66565 -2.41687,-1.253134 1.39271,1.580286 -1.2853,0.398722 1.73627,1.765453 -1.01897,-0.131132 -0.10791,2.246927 -0.81335,5.567536 -5.81472,4.609015 -10.07001,5.619291 -3.12779,-0.408812 3.25743,-5.527281 3.61573,-7.752046 2.0307,-4.059559 5.44474,-9.092556 2.40789,-13.517547 -1.55053,-2.942682 -8.29017,-6.703322 -8.83942,-4.572017 -3.01994,0.23325 6.16287,4.001255 1.64648,5.427329 3.78713,-0.387949 3.33523,3.63524 2.11556,5.078555 -0.65001,2.001419 -1.52441,3.359815 -2.63622,4.894224 0.12285,3.436316 -4.41627,6.928504 -7.56041,8.443734 2.05358,-1.479023 -3.26808,-9.306571 -1.03327,-4.123447 2.88138,3.334572 -1.88955,6.562838 -3.75739,2.143723 -1.78414,0.876909 -4.81019,4.39273 -5.31006,0.239237 0.20349,-1.433226 3.01962,-6.588574 0.37174,-2.787806 -1.68284,2.21288 1.00719,6.241485 -2.8581,3.434844 -3.05659,-2.337692 -5.12199,-5.598015 -6.03685,-8.513619 -0.74813,-1.203809 -1.67519,-3.107175 -2.17187,-4.296831 -1.01402,-1.721706 -0.71283,-4.781809 2.46271,-4.540758 -3.65752,-1.620354 1.98767,-3.522562 2.59872,-5.460166 -1.18362,-0.429141 -2.45164,1.429062 -1.18209,-0.797448 z m 26.34391,31.850974 c -1.27565,1.474431 -1.21958,0.914295 0,0 z m -44.7368,52.396958 c 0.73629,1.83585 -1.19814,1.13594 0,0 z m 60.39489,0 c 1.09183,1.04783 -0.65832,1.63525 0,0 z"/>
    </svg>
    <svg viewBox="-10 -10 120 120" id="grasshopper">
        <g transform="matrix(0.64346375,0,0,0.64346375,-0.0786877,-1.9997092)">
            <path style="stroke:#ffffff;stroke-width:0.300343;stroke-opacity:1"
                  d="m 123.97127,78.087715 c 8.36634,-9.750127 16.49797,-19.701078 24.87235,-29.436902 1.76799,-2.046206 9.78331,-10.551883 5.07536,-4.497618 -8.76355,9.75968 -16.88991,20.079153 -25.55798,29.931632 -1.44464,1.748303 -2.86327,3.519166 -4.21203,5.342842"/>
            <path style="stroke:#ffffff;stroke-width:0.240275pt;stroke-opacity:1"
                  d="m 111.88254,75.336659 c 7.25791,-4.420619 15.15363,3.595319 12.73803,11.039784 -0.8424,5.608843 -3.0341,12.014279 -8.28038,14.875207 -5.70129,-0.51699 -5.35477,-8.312123 -6.92025,-12.566144 -0.46695,-4.316186 -1.07082,-10.169695 2.4626,-13.348847 z"/>
            <path style="stroke:#ffffff;stroke-width:0.240275pt;stroke-opacity:1"
                  d="m 97.016266,85.88791 c 6.812314,4.154882 -3.892813,9.943367 -6.086843,3.135315 -2.440743,-3.527055 -11.719277,-12.835654 -11.37992,-3.004656 -1.755889,7.143503 -0.0259,14.673681 -1.661667,21.676791 -0.661988,2.79591 -2.156614,7.19129 -4.121107,2.51097 0.689286,-5.67205 0.715765,-12.796699 1.647973,-19.066216 0.794855,-5.02009 0.876997,-10.356074 3.08868,-15.01336 5.691908,-4.149355 11.595026,2.765136 15.371417,6.530439 1.114609,1.006945 2.224486,2.034507 3.141467,3.230717 z"/>
            <path style="stroke:#ffffff;stroke-width:0.201179pt;stroke-opacity:1"
                  d="m 83.449908,94.87864 c -3.207646,7.66123 7.76734,4.580229 7.686972,-1.146616 1.351118,-3.862171 7.314363,-8.970838 8.024625,-1.836148 3.035825,6.486056 1.699895,16.461414 8.860265,20.055324 5.59067,3.8384 4.04317,-4.45567 -0.41935,-4.42373 -3.54455,-4.6799 -1.56708,-11.492674 -4.23937,-16.756735 -0.6693,-5.455132 -5.401563,-12.503692 -10.591268,-6.113464 -3.082326,3.412279 -6.675627,6.444974 -9.321874,10.221369 z"/>
            <path style="stroke:#ffffff;stroke-width:0.240275pt;stroke-opacity:1"
                  d="m 66.957526,99.56493 c 4.520915,3.87561 14.274259,-2.169368 5.904556,-5.201811 C 67.674812,89.704736 63.239695,83.643327 56.535565,81.201617 45.186867,76.935264 34.398402,70.959219 25.35047,62.824126 c -7.858736,-5.186397 -10.823473,7.126431 -4.548181,10.49219 5.151307,3.202858 8.244948,9.184377 14.045565,11.658257 1.720374,-1.930162 -7.446219,-10.486989 -5.051796,-10.508846 5.405227,5.763445 12.206449,9.893037 18.036746,15.199336 5.162943,5.455993 11.814124,8.553304 19.124722,9.899867 z"/>
            <path style="stroke:#ffffff;stroke-width:0.240275pt;stroke-opacity:1"
                  d="m 96.819086,95.73005 c -1.347718,7.60753 -10.314894,9.03469 -16.735714,9.24073 C 70.24222,106.18539 60.926334,102.2171 51.475378,100.36752 40.113264,99.062824 28.664833,98.042242 17.487619,95.592796 12.009744,93.934797 6.4459993,88.751861 6.6904876,82.670599 10.749735,78.223688 17.78212,79.919462 23.239809,79.296056 c 20.825714,-2.149236 41.820456,-1.26339 62.676045,-2.984669 8.063396,1.965621 9.067342,11.799107 10.887331,18.527086 z"/>
            <path style="stroke:#ffffff;stroke-width:0.240275pt;stroke-opacity:1"
                  d="M 91.500136,84.69974 C 83.047934,87.17529 76.003059,94.475253 66.645941,93.518443 58.310796,93.377706 49.945069,92.723232 41.694783,91.671693 36.258746,89.297606 31.032244,86.172158 24.87639,86.183221 16.929195,85.183821 8.5468904,84.939518 1.2839048,81.235341 -2.9140391,74.273626 7.1261854,72.721883 11.965557,73.311707 31.574929,72.52401 51.211544,73.089855 70.823028,72.379593 c 7.618539,-0.154328 17.128142,0.338214 21.363808,7.788148 0.608126,1.371337 1.872272,4.454026 -0.6867,4.531999 z"/>
            <path style="stroke:#ffffff;stroke-width:0.240275pt;stroke-opacity:1"
                  d="m 58.559191,103.16027 c 4.898297,3.57174 16.542555,-1.5775 9.272248,-7.11954 C 59.883729,89.109224 50.129158,84.981905 40.745959,80.420999 32.191367,76.027408 24.532876,70.158122 17.486107,63.671597 c -8.4160194,-4.16626 -9.0464209,8.496209 -3.399448,11.25774 6.12059,4.885808 7.996386,13.224578 11.964888,19.731383 3.156129,6.66049 7.357754,12.81499 11.977404,18.51689 1.5663,2.65147 -4.26355,7.39504 1.65479,5.76465 8.208139,-1.61191 -1.962535,-9.63781 -2.771369,-13.94209 C 33.484369,97.740424 29.574641,90.749698 26.077463,83.541034 24.523012,81.074457 18.776427,72.062879 24.087385,77.91619 c 4.739669,5.284591 10.720336,9.273804 15.709379,14.332898 4.950704,5.712567 11.484435,9.166142 18.762427,10.911182 z"/>
            <path style="stroke:#ffffff;stroke-width:0.240275pt;stroke-opacity:1"
                  d="m 84.625675,94.61777 c 6.808331,4.154082 -3.896236,9.94038 -6.087542,3.133625 -2.441103,-3.52806 -11.720212,-12.836347 -11.38002,-3.003651 -1.758816,7.142926 -0.02557,14.672776 -1.662081,21.676296 -0.660862,2.79559 -2.155569,7.18832 -4.121602,2.51158 0.692234,-5.67144 0.713714,-12.79676 1.647251,-19.06598 0.794323,-5.021024 0.8801,-10.357097 3.091009,-15.015394 5.690488,-4.148436 11.59553,2.765964 15.370608,6.531622 1.114803,1.007462 2.225073,2.035319 3.142377,3.231902 z"/>
            <path style="stroke:#ffffff;stroke-width:0.240275pt;stroke-opacity:1"
                  d="m 121.5321,83.42619 c 0.80856,6.493793 -7.86284,11.714787 -8.08279,2.341469 -3.04181,-6.601084 7.27865,-12.337678 8.11304,-3.742317 z"/>
            <path style="stroke:#ffffff;stroke-width:0.240275pt;stroke-opacity:1"
                  d="m 86.332119,73.927929 c 7.803215,0.07364 15.644931,0.63998 23.423521,0.657019 4.26801,3.150621 -3.06066,9.914365 0.36698,14.782753 1.61334,6.377476 -7.19599,9.298303 -12.145764,8.521968 -7.116282,-1.038244 -6.838869,-9.16081 -8.74507,-14.422358 0.431728,-3.145029 -7.58417,-8.179453 -2.899667,-9.539382 z"/>
            <path style="stroke:#ffffff;stroke-width:0.300343;stroke-opacity:1"
                  d="m 122.2843,78.981809 c 9.06929,-10.969979 17.68373,-22.300963 26.6304,-33.372493 1.87637,-2.283976 5.81671,-7.940992 1.44317,-3.047576 -9.89033,11.389587 -18.84294,23.560029 -28.35108,35.262728"/>
            <path style="stroke:#ffffff;stroke-width:0.169473pt;stroke-opacity:1"
                  d="m 100.24658,91.25958 c 4.92298,4.723868 -3.7571,4.472181 -6.508656,2.885696 -1.723951,5.081898 1.276874,11.198454 1.466721,16.713624 1.942117,3.00305 -1.678248,12.53352 -4.175203,7.09611 3.923226,-5.10079 0.381805,-10.76463 -0.53704,-16.32245 -0.55491,-4.458063 -3.815825,-15.753159 4.532604,-12.275 1.801993,0.434176 3.609244,0.962247 5.221574,1.90202 z"/>
        </g>
    </svg>
    <svg viewBox="-10 -10 120 120" id="ant">
        <path style="stroke:none;stroke-width:0.296779"
              d="m 48.435189,39.295977 c -2.961745,1.340355 -3.121463,7.584204 -6.603644,3.828286 C 35.113809,38.205043 31.611559,30.28943 25.798518,24.480505 24.538625,22.875418 21.367,18.002171 19.647665,21.489265 c 4.023022,0.6195 4.829021,5.634223 8.340435,7.20091 4.331893,2.999226 5.244125,8.696184 8.308524,12.742245 1.014534,3.389767 6.008301,4.201271 6.975687,6.224149 0.09781,3.46279 -3.86859,-1.977122 -5.684119,-1.705951 -4.249274,-2.981617 -8.843288,0.394871 -9.452591,4.960607 -1.833773,5.099392 -1.515545,10.908867 -4.180535,15.686993 -1.921854,2.889256 -6.134708,4.987915 -5.791269,8.904773 7.819874,-7.295178 12.897612,-17.550436 13.9486,-28.193985 3.970922,0.864857 8.275583,2.046863 11.252696,4.952189 -0.118017,3.232787 -4.798936,4.575047 -6.943204,6.765981 -4.402482,2.447144 -3.750589,8.123421 -3.099749,12.322078 0.650964,5.102027 2.623815,11.124836 -1.078752,15.552727 -1.300815,1.523867 -5.099431,6.768822 -2.719167,7.310322 1.611299,-0.900305 2.6454,-2.315859 3.433769,-3.950772 1.202108,-2.050659 2.404216,-4.101318 3.606324,-6.151977 -1.859029,-6.336395 0.416496,-13.005184 -1.207079,-19.366412 0.07474,-4.968994 6.615703,-5.541552 9.516883,-8.530754 0.395708,2.374222 0.791416,4.748445 1.187124,7.122667 -5.467661,1.676056 -8.139953,7.676543 -7.620052,13.055928 0.421121,8.167194 4.507185,15.605869 9.070969,22.1661 3.679211,4.156607 6.811147,-2.738823 8.291309,-5.548455 4.290223,-6.955077 7.787236,-15.999536 4.161359,-23.954831 -1.781655,-3.671158 -6.884904,-6.157384 -5.604274,-10.852257 0.523004,-4.138118 5.200535,1.716293 7.571017,2.33099 4.588415,2.238196 1.323612,7.288593 1.931216,11.07353 0.110314,4.165884 0.57597,8.433384 -0.588382,12.503494 1.769719,2.894197 3.348387,5.958941 5.234925,8.748856 1.572153,1.776039 3.68741,2.160954 2.210952,-1.110187 -2.159603,-4.12851 -6.351704,-7.755749 -5.246989,-12.92516 0.241631,-5.799785 3.021781,-11.978985 0.363447,-17.565462 -2.712886,-3.241253 -7.118418,-4.722055 -9.566759,-8.197157 1.56995,-3.438106 6.310855,-4.158673 9.62833,-5.389278 3.391867,-1.155717 1.900832,5.091465 3.789319,7.155465 1.480398,3.569006 2.870962,7.178994 3.742105,10.943404 2.00812,3.566838 4.371012,7.372794 8.245191,9.732956 0.270988,-5.019591 -6.113706,-6.917158 -7.028636,-11.590507 -1.752801,-5.84086 -1.596381,-12.485125 -5.228518,-17.613511 -3.795418,-3.591464 -9.140774,0.706447 -12.672257,2.790716 -1.600241,-3.518374 3.306507,-2.663451 4.591409,-5.313646 6.153243,-7.077417 9.173699,-17.06476 17.593795,-22.009284 3.788561,-2.139998 -3.874958,-1.425959 -3.863435,1.276542 -2.839216,3.913326 -6.638661,7.051111 -9.120856,11.267458 -2.846792,4.055217 -5.960465,8.348427 -10.684821,10.327255 0.206487,-2.983577 -6.437563,-5.473444 -1.485695,-6.250489 3.744164,-1.447186 3.330539,-5.900469 2.355907,-9.01165 -1.570739,-4.681954 0.949591,-9.205317 3.354076,-13.078482 2.500514,-4.319153 3.441149,-9.6541884 2.571306,-14.5563964 -2.932139,-4.7843845 -3.460238,2.6819676 -2.204675,4.8695902 0.397011,4.6590772 -0.950174,9.4283422 -2.905496,13.6351812 -1.518928,3.973776 -4.270623,1.235504 -5.54354,-1.130752 0.402782,1.821924 -1.840933,1.782022 -2.71753,1.251414 -0.446388,-3.639395 -3.222034,5.722499 -5.251938,0.735372 -2.426983,-4.144137 -3.517652,-9.08309 -3.566354,-13.857931 1.155967,-2.2071457 1.181893,-10.3825279 -2.070039,-5.5051821 -1.104758,5.8547323 0.600669,12.0040201 3.892675,16.9022221 2.610234,3.643344 3.043031,8.229795 1.657748,12.414629 -1.48489,3.773174 1.115554,7.737848 5.087633,8.240437 z"/>
    </svg>
    <svg viewBox="-10 -10 120 120" id="spider">
        <path style="stroke:#ffffff;stroke-width:0.129373;stroke-miterlimit:4;stroke-dasharray:none;stroke-opacity:1"
              d="m 32.189384,0.0140928 c -1.076875,4.8241654 -0.399973,10.2708762 0.575318,15.2008732 1.725652,3.959937 2.639149,8.340133 4.191591,12.140349 3.1556,3.27903 4.74732,7.729262 6.87249,11.345864 -2.201105,0.171717 -7.629421,-3.211545 -10.653141,-4.798216 -6.268581,-2.225518 -9.545756,-7.762231 -12.9818,-13.009193 -3.812634,-3.824853 -5.19396,-9.180446 -6.84509,-14.1011213 0.256861,5.6308023 3.129872,10.6722863 5.342222,15.7096583 4.056669,3.621655 6.15494,8.979745 10.199147,12.449533 5.569797,1.106242 10.662344,3.647538 14.97388,7.271684 -2.622944,0.363787 -5.426937,1.51043 -7.823519,3.21316 -4.577213,1.585683 -7.963425,5.919529 -12.625652,6.704196 -8.571181,1.448474 -16.0256322,-4.154646 -22.2103372,-9.314643 -1.67592524,-0.251216 3.6570429,5.323059 5.7022847,6.657234 3.8372895,3.283243 8.3512255,4.744642 13.4044765,4.383362 4.410895,0.374274 9.406223,1.083047 11.870303,-3.534092 3.188093,-3.250519 7.339631,-4.66395 11.514153,-5.854916 -2.588527,4.056215 -6.578285,7.052471 -8.696277,11.424141 -2.475883,3.393324 -2.33696,7.613284 -3.076181,11.541549 -0.419059,5.356188 -5.05098,9.527649 -4.704289,14.87995 -0.077,5.718318 0.930879,11.355206 2.712207,16.782013 -0.770752,-5.354723 -2.338049,-10.642232 -1.545917,-16.155819 1.560768,-5.873014 3.249019,-11.779655 5.060436,-17.607814 2.407584,-3.733503 3.82515,-10.859017 5.976243,-12.700009 -0.03964,4.148294 -0.192255,8.87938 3.694552,11.482847 3.184626,2.978442 8.018678,5.788202 11.737232,1.941203 4.022525,-2.62652 7.158197,-6.687869 6.222812,-11.764634 1.148922,-1.562441 1.92101,6.740018 4.054611,8.308822 2.155652,5.344586 3.71652,10.963556 5.095651,16.566768 2.726023,6.252239 0.662594,13.14796 -0.469646,19.517705 2.22831,-5.974306 3.069635,-12.720715 2.680894,-19.2007 C 70.1904,74.803118 67.912956,69.9835 67.334552,64.739135 c 0.01954,-5.187587 -2.779873,-9.730483 -5.874482,-13.68627 -0.742106,-1.526723 -5.944441,-7.356823 -2.524346,-5.393097 5.144721,0.35887 8.68267,5.075471 12.285152,8.265767 5.041761,0.547716 10.166254,-0.306054 15.22436,-0.52444 4.871366,-2.689181 9.963227,-6.028155 12.868299,-10.977972 -5.887114,4.145745 -11.771639,9.788352 -19.455087,9.878224 -5.19908,1.007201 -8.573831,-2.899051 -12.797848,-5.064352 -3.442408,-1.704117 -7.004388,-4.269904 -10.355692,-5.123056 3.471223,-3.800807 8.424808,-5.82199 13.365333,-6.931191 4.825218,-2.896684 6.759658,-9.156422 11.111046,-12.883954 2.022344,-4.738395 4.61592,-9.344457 5.209153,-14.5785937 -0.505657,-1.6851168 -1.685909,5.9466127 -2.993992,7.4047497 -2.960853,5.214505 -6.823449,9.8754 -10.265676,14.76254 -4.45467,2.804663 -8.90984,5.791151 -13.866291,7.686538 -5.124245,3.612071 -1.16361,-3.469739 0.144806,-5.522253 3.279076,-3.676886 4.62012,-7.779179 5.890133,-12.406481 2.549984,-5.38447 2.889372,-11.4397738 2.680894,-17.2986272 -0.41953,-3.7838808 -0.555169,-1.88485785 -0.407016,0.6183677 0.499062,4.5530362 -1.159172,8.7437465 -2.42651,12.9583155 -0.520112,4.187983 -2.353264,7.943334 -4.684712,11.396742 -1.653133,2.537323 -3.958381,9.86615 -6.293256,8.680623 0.905517,-1.027531 1.627335,-4.813236 0.289612,-3.459725 -1.167516,2.712125 -5.92832,0.492502 -8.457545,1.322836 -0.764328,-3.864585 -2.936072,0.467895 0.06653,1.678983 -0.24638,4.311384 -4.341587,-3.004903 -5.048696,-4.853006 C 38.126171,25.316159 34.603025,20.180694 34.165801,13.876475 31.721237,9.6880162 32.226846,4.6732494 32.189374,0.0140928 Z M 30.216871,99.402926 c -0.0394,-0.01261 -0.09833,0.148711 -0.0587,0.524433 0.117975,-0.325386 0.09811,-0.511847 0.0587,-0.524433 z m 39.258485,0 c -0.03938,-0.01261 -0.09829,0.148711 -0.05871,0.524433 0.117975,-0.325386 0.09809,-0.511847 0.05871,-0.524433 z"/>
    </svg>
    <svg viewBox="-10 -10 120 120" id="queen">
        <g transform="matrix(0.94038282,0,0,0.94038282,-18.133664,-8.2068801)">
            <path 
                  d="m 71.44835,15.17754 c 2.100215,0.02934 2.108231,0.354111 2.42603,1.77794 0.436116,2.431102 -1.678112,0.22888 -0.0066,2.710567 1.160141,2.177865 7.052595,-0.891082 9.169347,2.614673 1.72098,2.238629 0.4516,5.864463 -0.2825,7.755971 -2.560868,0.104437 -1.985621,6.478353 -3.571859,6.897588 -3.182334,-1.34768 -6.778036,-0.617648 -10.145914,-0.711021 -2.170221,0.009 -5.510586,2.101726 -4.100477,-1.637448 -0.98583,-2.563806 -3.177819,-4.117799 -3.391803,-6.521865 -1.012113,-2.088608 -1.00286,-4.90998 0.809851,-6.515166 3.048459,-2.424667 9.378286,0.731962 9.229652,-3.4208 -1.550451,0.566968 -0.269639,-2.853167 -0.01852,-2.481688 l -0.06909,-0.27637 -0.0481,-0.192381 z m 1.65991,1.02149 c -0.350834,-0.14532 0.14532,0.350834 0,0 z m -0.12769,1.65993 c -0.350832,-0.145318 0.145311,0.350809 0,0 z m -6.89505,4.21363 c -4.249934,-1.668832 -5.027447,7.588645 -1.6599,6.12893 0.181229,1.606685 2.453011,1.941333 1.91529,-0.63844 0.2574,-0.54353 -1.564771,-3.814914 -0.25539,-5.49049 z m 14.17315,6.25661 c 4.841336,1.048905 0.521002,-9.599712 -1.447875,-5.428706 0.479871,1.326547 0.452178,3.712443 -0.722775,4.407216 -0.08782,2.680872 1.726456,2.64921 2.17065,1.02149 z m -9.9595,1.02149 c 2.234862,-1.815717 0.03406,-9.824952 -2.28558,-5.23512 0.357696,2.006155 0.72379,4.141785 2.28558,5.23512 z m 5.61818,-1.27686 c 1.138573,-1.82879 1.216644,-7.281572 -1.921553,-4.807754 -0.956916,1.469285 -0.42421,8.0717 1.259152,4.745995 0.05205,-0.202345 0.508429,0.107825 0.662401,0.06176 z M 64.80867,43.18251 c 3.037842,-3.449974 6.889891,-0.811262 10.513358,-1.630812 3.604584,1.694834 6.186067,-0.14149 7.728605,-3.620941 1.315929,-1.607665 2.802537,-6.182428 5.260798,-3.880424 0.698123,2.811445 -2.61139,4.032479 -4.167991,5.825621 -1.153521,1.224071 -2.829204,2.099384 -3.634544,3.566296 1.478196,3.509731 1.953366,8.828291 -2.450406,10.441145 C 73.729576,55.538908 67.991108,55.754136 64.433915,52.352162 60.655841,49.2921 66.333485,44.090877 62.596599,41.778 60.453194,39.566844 57.410733,37.980089 56.14007,35.13829 c 0.551866,-3.790174 3.894817,-0.469225 4.583274,1.497024 1.384721,2.167267 2.900393,4.260325 4.085326,6.547196 z m 6.00124,-12.04422 c 0,0.83173 0,0.543737 0,0 z m 1.02149,0.12769 c -0.961272,-0.166273 -1.126307,1.465794 0,0 z m 1.27686,-0.12769 c 0.417263,1.05223 1.006328,0.764452 0,0 z m -4.08595,0.12769 c -0.765767,1.735565 2.056336,-0.42738 0,0 z m 6.89504,0 c -2.028958,0.30264 0.497081,1.280959 0,0 z m -8.42727,0.38306 c -0.615493,0.196587 -0.341086,1.063441 0,0 z m 9.95951,0 c -0.04892,0.93967 0.520088,0.7584 0,0 z m 0.63843,0.25537 c -0.350834,-0.14532 0.14532,0.350834 0,0 z M 65.19173,32.0321 c -0.182124,0.621959 0.378183,0.748598 0,0 z m 14.5562,0 c -0.757081,0.591308 -0.375056,1.126296 0,0 z M 65.4471,32.54283 c -0.350812,-0.145314 0.145327,0.350857 0,0 z M 38.37767,74.59326 c -6.979859,0.364615 -13.764559,-2.646861 -19.094391,-6.971013 0.678272,-1.857362 3.473672,-2.604655 5.057766,-3.96444 8.388232,-5.379848 17.088465,-12.019905 27.5815,-11.409587 6.089675,-0.04465 11.346441,3.272703 16.635061,5.774097 4.505339,1.760866 9.146131,-0.154027 12.837271,-2.767518 9.990969,-5.735233 22.554643,-2.610947 31.299613,3.973584 4.02204,3.045266 8.754,5.010805 12.92846,7.745857 -3.15973,3.40486 -7.91771,5.543099 -12.42129,6.86567 -2.39266,0.534457 -4.82214,0.871988 -7.2781,0.75335 1.34524,2.384353 3.07295,4.617372 4.11021,7.1236 -4.71482,2.955271 -11.616536,2.376846 -15.54888,-1.809564 -4.636621,-4.715479 -7.999699,-10.507686 -11.656949,-15.972843 -0.834831,-3.188302 -1.948596,1.699099 -2.938131,2.799006 -2.192473,1.903941 4.687892,2.920998 0.258646,3.756757 -5.444741,1.808858 -11.372953,1.600356 -16.872006,0.144784 3.211702,-2.353257 1.096154,-5.04409 -0.44756,-7.558771 -1.161497,-2.403652 -2.21124,3.32808 -3.407997,4.446197 -3.794681,6.979666 -9.047965,14.642523 -17.476731,15.938843 -2.731258,0.0456 -10.174332,-0.245926 -6.504903,-4.069268 0.93587,-1.625084 1.965192,-3.195696 2.938411,-4.798741 z m 75.71779,-7.66116 c -5.5867,-6.19555 -13.47786,-12.200974 -22.318396,-10.921235 -3.71117,0.202972 -5.396194,2.446453 -1.958734,4.925247 5.242063,6.302698 14.33302,10.796834 22.34273,6.947229 l 0.97691,-0.451133 z M 57.01982,57.22797 c -6.437495,-2.646099 -13.826719,-1.073522 -19.308657,2.987925 -2.772721,2.039773 -5.569913,4.176278 -7.888443,6.716205 6.740372,3.814068 15.59902,2.614989 21.18845,-2.729831 2.332268,-2.009097 4.387291,-4.354602 6.00865,-6.974299 z m 0.12769,6.89505 c -4.082907,3.069006 -8.076156,6.29364 -12.51322,8.85118 -2.961828,1.995447 -5.6846,7.444871 -0.0585,5.995756 6.570386,-2.032152 9.864958,-9.073911 12.57172,-14.846936 z m 30.26158,0.38305 c 1.491649,4.291226 4.040933,8.454417 7.361133,11.65105 1.509066,2.380187 8.915957,4.490495 8.379057,1.17255 C 100.71513,72.414236 95.421803,70.24101 91.256707,67.070344 89.974168,66.215586 88.691629,65.360828 87.40909,64.50607 Z M 59.70124,75.9978 c 8.038512,3.196442 17.251503,3.433183 25.307996,0.17334 1.327942,1.344638 3.530655,6.415326 -0.438574,6.414138 -7.552793,2.754114 -16.067645,2.917744 -23.616149,0.03331 -1.413018,-0.566098 -4.014908,-0.736867 -2.51173,-2.75555 0.419486,-1.288411 0.838971,-2.576823 1.258457,-3.865234 z m -1.9153,12.64092 c 6.559733,0.857551 13.209743,2.791952 19.865722,1.508691 3.143372,-0.326809 6.251704,-0.905395 9.374368,-1.381001 1.064651,6.365795 -6.480082,6.548241 -10.878159,6.893615 C 70.782739,95.899302 65.16139,95.784839 60.077682,93.92021 58.257093,92.867431 57.96715,90.533447 57.78594,88.63872 Z m 7.15042,12.38554 c 4.919914,-0.21304 9.893432,-0.18619 14.81157,0 -2.192538,2.50459 -4.055879,5.38915 -6.50943,7.59221 -2.981796,-2.18127 -5.62621,-5.01257 -8.30214,-7.59221 z"/>
        </g>
    </svg>
</svg> 
