<?xml version="1.0" encoding="UTF-8" standalone="no"?>
<svg
   xmlns="http://www.w3.org/2000/svg"
   id="svg2735"
   viewBox="0 0 176.07649 81.48647"
   y="0"
   x="0"
   width="136.07649"
   height="41.486473">
  <g
     id="g1361"
     transform="translate(20,-40)"
     style="fill:#000000;fill-opacity:1">
    <path
       id="path3489"
       style="fill:#000000;fill-opacity:1;fill-rule:evenodd;stroke:#ffffff;stroke-width:0.3;stroke-opacity:.5;stroke-miterlimit:4;stroke-dasharray:none"
       d="m 123.97127,78.087715 c 9.23817,-11.19158 11.65299,-13.292818 20.49924,-24.5176 2.82135,-3.123398 6.93532,-8.037353 11.48016,-12.254058 -2.82135,4.330542 -5.19236,6.23968 -7.12033,8.495072 -2.89925,3.396131 -6.07845,7.432594 -8.86572,10.748091 -4.67386,5.556659 -11.31949,12.782924 -15.81565,18.868449" />
    <path
       id="path3408"
       style="fill:#000000;fill-opacity:1;fill-rule:evenodd;stroke:#ffffff;stroke-width:.6;stroke-opacity:.5;stroke-miterlimit:4;stroke-dasharray:none"
       d="m 111.88254,75.336659 c 3.08182,-1.591343 7.24934,-1.60083 9.95872,0.720967 2.11784,1.885422 3.04774,4.745574 3.00149,7.487144 -0.0268,2.53049 -0.55989,5.02779 -1.19037,7.47054 -1.21959,3.74475 -3.17433,7.46579 -6.44116,9.8872 -1.0784,0.65219 -2.57306,0.56444 -3.47131,-0.34388 -1.62125,-1.59135 -2.22008,-3.85148 -2.82623,-5.94561 -1.00293,-3.90365 -2.41482,-7.90928 -1.6967,-11.98132 0.16066,-2.20559 0.21422,-4.638849 1.70401,-6.443636 0.27751,-0.324909 0.60127,-0.611873 0.96155,-0.851405 z" />
    <path
       id="path3650"
       style="fill:#000000;fill-opacity:1;fill-rule:evenodd;stroke:#ffffff;stroke-width:.6;stroke-opacity:.5;stroke-miterlimit:4;stroke-dasharray:none"
       d="m 97.016266,85.88791 c 2.3637,1.03164 3.427494,4.69814 0.56475,5.87445 -3.31308,2.03483 -5.50638,-1.44193 -7.36619,-3.59535 -1.96448,-2.27673 -4.031199,-4.29733 -6.44359,-5.97406 -2.743456,-1.90676 -3.804811,-1.07196 -4.101796,2.57082 -0.272641,3.34633 -0.966417,6.68791 -1.034577,10.10064 -0.06086,2.91233 -0.355408,5.83177 0.133886,8.72986 0.09737,2.79375 -1.713747,5.54006 -2.198173,7.80731 -0.163098,1.60557 -0.564757,1.50597 -1.750261,0.23716 -2.952806,-2.07278 1.039446,-1.16208 -0.569627,-4.07915 -0.649958,-3.37242 0.06329,-6.82072 0.598838,-10.13622 0.455214,-2.82457 0.421134,-5.578 0.766805,-8.37412 0.76437,-4.05306 0.925034,-8.26977 2.453774,-12.142591 0.907994,-2.357371 3.919223,-2.43089 6.058973,-1.728897 2.69477,0.882235 4.778528,2.31231 6.509318,4.330542 1.94744,2.267246 4.55701,4.003256 6.37787,6.379606 z" />
    <path
       id="path3436"
       style="fill:#000000;fill-opacity:1;fill-rule:evenodd;stroke:#ffffff;stroke-width:.6;stroke-opacity:.5;stroke-miterlimit:4;stroke-dasharray:none"
       d="m 83.449908,94.87864 c -1.23419,2.10124 -0.878782,5.96458 2.906554,4.73134 3.325254,-1.1099 3.997124,-4.59853 5.219144,-6.73534 1.07109,-1.87356 4.99031,-6.59305 6.11252,-4.4254 3.079394,5.95746 3.376384,12.92996 6.151484,19.17438 0.31646,3.11866 3.60276,3.94634 6.20503,5.27207 3.87541,0.95338 1.10517,-4.81198 -1.519,-4.91633 -2.81649,-0.93441 -2.64852,-4.17164 -3.04531,-6.40569 -0.21666,-4.92581 -1.53605,-9.69747 -3.41046,-14.26755 -0.55745,-2.46172 -2.05941,-6.82072 -6.122264,-4.83332 -3.25223,1.59135 -5.12664,4.28786 -7.48791,6.72349 -1.752694,1.80479 -3.760992,3.5906 -5.009788,5.68235 z" />
    <path
       id="path3630"
       style="fill:#000000;fill-opacity:1;fill-rule:evenodd;stroke:#ffffff;stroke-width:.6;stroke-opacity:.5;stroke-miterlimit:4;stroke-dasharray:none"
       d="m 66.957526,99.56493 c 3.722044,1.25932 5.572112,1.74549 8.369123,-0.0569 2.478117,-1.96605 0.805753,-3.17557 -1.606638,-4.44437 -2.405088,-1.78582 -3.785337,-4.2926 -6.219637,-6.01675 -2.804313,-1.26169 -4.532666,-4.89499 -7.244476,-6.32506 -4.970841,-2.1463 -9.917338,-3.664122 -14.632578,-6.367746 -4.997618,-2.404803 -7.100853,-3.642778 -11.745497,-6.789891 -2.414826,-1.636404 -6.548267,-5.02542 -8.527353,-6.740087 -2.064286,-1.790558 -6.964532,-1.306752 -8.057533,1.510709 -0.01217,2.428518 0.387054,4.513155 1.65289,7.517972 1.253664,1.607945 3.933828,2.094123 5.087687,3.882309 4.4499,5.547174 12.724086,11.402654 11.426604,8.649224 -1.72105,-3.05462 -2.497592,-3.75187 -4.318448,-6.806491 -0.966417,-0.735196 -1.66993,-2.656192 -2.310151,-3.860964 2.646084,1.871192 4.64221,4.840435 7.383232,6.692655 3.61737,2.44275 7.220134,5.54717 10.623285,8.48321 2.709376,1.9708 4.909983,4.73372 7.933384,6.30846 3.792639,2.31231 7.904172,3.3985 12.186106,4.36374 z" />
    <path
       id="path3409"
       style="fill:#000000;fill-opacity:1;fill-rule:evenodd;stroke:#ffffff;stroke-width:.6;stroke-opacity:.5;stroke-miterlimit:4;stroke-dasharray:none"
       d="m 96.819086,95.73005 c -1.25123,8.00415 -11.29272,9.152 -18.035731,9.2777 -8.870589,0.79923 -17.181289,-2.27437 -25.518767,-4.41118 -9.827269,-1.29252 -14.895482,-1.39213 -24.902889,-3.1068 -4.571615,-0.785 -6.372997,-0.42451 -13.220683,-2.60164 -3.933829,-2.7558 -7.5244221,-5.03254 -8.6271591,-11.25087 0.0073,-5.618321 15.4772791,-3.6072 22.0742321,-4.752687 19.058135,-1.766842 38.26963,-0.901208 57.327765,-2.573186 7.397842,1.351812 8.318002,10.131473 10.433412,15.889723 0.29942,1.15259 0.50633,2.33839 0.46982,3.52894 z" />
    <path
       id="path3442"
       style="fill:#000000;fill-opacity:1;fill-rule:evenodd;stroke:#ffffff;stroke-width:.6;stroke-opacity:.5;stroke-miterlimit:4;stroke-dasharray:none"
       d="M 91.500136,84.69974 C 83.418262,86.94801 76.952761,93.84463 68.116252,93.50312 60.272938,93.65253 52.456401,92.68729 44.652035,92.12759 39.089659,92.06119 35.370049,87.49585 30.038932,86.91955 20.93465,85.33532 11.348376,85.57249 2.7139139,81.9724 -1.9582381,80.56841 0.46948991,74.219636 4.4885189,73.792748 24.415699,72.187175 44.442685,73.368231 64.399076,72.433821 c 6.794132,0.03795 13.856036,-0.583414 20.399434,1.522567 3.994686,1.679093 8.916846,5.76536 8.101346,10.212112 -0.18744,0.13044 -1.11977,0.48618 -1.39972,0.53124 z" />
    <path
       id="path3430"
       style="fill:#000000;fill-opacity:1;fill-rule:evenodd;stroke:#ffffff;stroke-width:.6;stroke-opacity:.5;stroke-miterlimit:4;stroke-dasharray:none"
       d="m 58.559191,103.16027 c 3.675793,1.45616 7.366191,1.20952 10.2411,-0.43163 2.563318,-1.82139 1.397288,-5.29104 -0.968852,-6.68791 -2.334493,-1.90914 -4.841822,-3.64041 -7.210396,-5.49263 -2.758062,-1.4111 -5.438227,-2.95738 -8.096482,-4.53213 -4.892943,-2.40954 -9.78832,-4.19298 -14.401319,-7.143255 -4.909983,-2.670422 -6.966967,-4.019862 -11.494765,-7.408878 -2.351533,-1.762099 -6.355957,-5.36456 -8.269317,-7.181205 -1.996126,-1.894909 -6.925583,-1.683836 -8.13543,1.062477 -0.109544,2.41666 1.073526,5.094196 1.351036,7.577262 1.192807,1.669606 3.858366,2.300452 4.941629,4.145556 4.233248,5.770103 6.993744,13.333133 10.116951,18.607573 1.329128,2.87201 2.986886,6.00726 4.931892,8.67057 1.718616,2.49255 3.388545,5.03254 5.267825,7.40888 2.178699,1.69332 1.976652,4.36612 -0.0779,6.03572 -1.192807,2.53286 3.02827,1.03164 4.311146,0.85377 3.571118,-0.4838 1.815988,-3.95819 0.389488,-5.67049 -3.890012,-5.85311 -6.536096,-12.35129 -9.75424,-18.55303 -1.764868,-2.54709 -2.899252,-5.29578 -4.08719,-8.11087 -1.601769,-3.13525 -2.3491,-3.87282 -4.050675,-7.017562 -0.937206,-0.784999 -1.567689,-2.734455 -2.159224,-3.970058 2.575489,2.008745 4.457203,5.07522 7.12763,7.06974 3.524866,2.63247 7.00835,5.92188 10.299523,9.03342 2.633913,2.11073 4.727411,4.98273 7.692388,6.71637 3.707439,2.5139 7.782457,3.82065 12.03518,5.01831 z" />
    <path
       id="path3423"
       style="fill:#000000;fill-opacity:1;fill-rule:evenodd;stroke:#ffffff;stroke-width:.6;stroke-opacity:.5;stroke-miterlimit:4;stroke-dasharray:none"
       d="m 84.625675,94.61777 c 2.361271,1.02927 3.425061,4.69577 0.562323,5.87208 -3.310648,2.03483 -5.506386,-1.43956 -7.363757,-3.59535 -1.96448,-2.27436 -4.031201,-4.29734 -6.446027,-5.97406 -2.743456,-1.90676 -3.802376,-1.07196 -4.099361,2.57319 -0.275076,3.34396 -0.968851,6.68791 -1.037012,10.09827 -0.05842,2.91233 -0.352973,5.83177 0.133887,8.73223 0.09737,2.79138 -1.711313,5.54007 -2.195739,7.80493 -0.165532,1.60559 -0.567192,1.50598 -1.750261,0.23717 -2.955241,-2.0704 1.037011,-1.15971 -0.569627,-4.07678 -0.652392,-3.37479 0.06329,-6.82309 0.596404,-10.13622 0.455214,-2.82695 0.421134,-5.578 0.766804,-8.37412 0.764371,-4.05306 0.927469,-8.26977 2.456209,-12.14496 0.907994,-2.35737 3.916789,-2.43089 6.056539,-1.7289 2.697204,0.88461 4.780965,2.31468 6.511752,4.33054 1.945006,2.26725 4.55701,4.00563 6.377866,6.38198 z" />
    <path
       id="path3454"
       style="fill:#000000;fill-opacity:1;fill-rule:evenodd;stroke:#ffffff;stroke-width:.6;stroke-opacity:.5;stroke-miterlimit:4;stroke-dasharray:none"
       d="m 121.5321,83.42619 c -0.35784,4.01512 -2.49516,8.23182 -4.74445,8.04209 -2.24686,-0.18973 -3.76099,-4.71711 -3.40315,-8.73223 0.35784,-4.015117 2.06672,-5.438077 4.31358,-5.248349 2.24929,0.189728 4.19186,1.920996 3.83402,5.938489 z" />
    <path
       id="path3410"
       style="fill:#000000;fill-opacity:1;fill-rule:evenodd;stroke:#ffffff;stroke-width:.6;stroke-opacity:.5;stroke-miterlimit:4;stroke-dasharray:none"
       d="m 86.332119,73.927929 c 6.623727,-0.16364 14.561991,0.884607 22.517281,0.479063 5.41388,0.825317 1.26827,3.604832 0.52824,9.600238 0.26534,6.9559 3.81942,9.34647 -4.64951,12.96554 -4.822354,2.39768 -11.300024,0.91069 -13.120884,-4.45387 -1.25366,-4.88075 -1.94987,-9.80182 -4.866164,-14.160822 -0.740028,-0.789743 -3.999555,-4.340028 -0.408963,-4.430149 z" />
    <path
       id="path3567"
       style="fill:#000000;fill-opacity:1;fill-rule:evenodd;stroke:#ffffff;stroke-width:0.3;stroke-opacity:.5;stroke-miterlimit:4;stroke-dasharray:none"
       d="m 122.2843,78.981809 c 3.55651,-4.487068 5.465,-6.502928 8.68558,-10.620025 7.07408,-9.773364 15.01476,-18.230489 21.93061,-28.23627 -1.71131,1.124139 -3.39828,3.600089 -5.01222,5.317127 -2.10567,2.352628 -4.18213,4.873638 -6.15148,7.463426 -3.57599,4.574816 -7.06434,8.815237 -10.58434,13.473059 -2.9382,3.91314 -6.09548,7.195435 -9.14566,11.445342" />
    <path
       id="path3633"
       style="fill:#000000;fill-opacity:1;fill-rule:evenodd;stroke:#ffffff;stroke-width:.6;stroke-opacity:.5;stroke-miterlimit:4;stroke-dasharray:none"
       d="m 100.24658,91.25958 c 2.24443,0.87749 2.26147,4.47758 -0.769244,4.1171 -2.22008,0.64508 -4.80287,-2.74868 -6.37299,-0.69962 -0.20692,2.95027 0.50876,5.89817 0.93233,8.81049 0.76194,3.90366 1.29992,7.86897 1.62125,11.81294 -0.34811,1.63166 -2.03508,5.95035 -4.22595,4.21196 -1.28531,-2.12733 0.81062,-4.03646 1.64559,-5.91003 0.37245,-2.41903 -1.03458,-4.75031 -1.44598,-7.11954 -1.50439,-5.11317 -2.00099,-10.4469 -2.2785,-15.74268 0.20692,-2.81035 3.81698,-2.11547 5.67192,-1.38264 1.81599,0.43637 3.62954,0.97235 5.221574,1.90202 z" />
  </g>
</svg>
