<?xml version="1.0" encoding="UTF-8" standalone="no"?>
<svg
   xmlns="http://www.w3.org/2000/svg"
   version="1.1"
   id="svg986"
   width="38.314671mm"
   height="33.8125mm"
   viewBox="0 0 144.81136 127.79528">
  <defs
     id="defs990" />
  <g
     id="g994"
     transform="translate(-236.42548,-102.83838)">
    <path
       id="Selection #1"
       fill="none"
       stroke="#FFFFFF"
       stroke-width="0.15"
       d="m 307.87383,122.01592 c 0,0 1.91528,0 1.91528,0 0,0 -0.25537,1.02149 -0.25537,1.02149 0,0 0.76612,-0.38305 0.76612,-0.38305 0,0 0,2.68141 0,2.68141 0,0 -0.89381,-0.51075 -0.89381,-0.51075 0.73164,1.51946 0.83763,0.66524 1.02149,2.80909 0.33198,-0.17238 0.80187,-0.43413 1.14917,-0.53628 0.8338,-0.24771 2.04681,-0.0894 2.55373,0.66397 0.71121,-0.29623 1.26792,-0.34604 2.02637,-0.39072 0,0 0.78654,0 0.78654,0 0.58737,0.0281 1.70845,0.77505 2.11449,1.19387 0,0 0.40476,0.55415 0.40476,0.55415 0.19025,0.24388 0.43158,0.40731 0.56054,0.69844 0.12513,0.28602 0.092,0.58225 0.13535,0.88104 0,0 0.20175,0.89379 0.20175,0.89379 0,0 -0.1545,1.9153 -0.1545,1.9153 -0.0868,0.40604 -0.69079,1.70333 -0.72015,1.69567 -0.0702,0.44306 0.57969,1.23216 0,1.5999 -0.20941,0.10215 -0.40859,0.0894 -0.58992,0 -0.14555,-0.0676 -0.19152,-0.14173 -0.29622,-0.23111 -0.1877,0.35624 -0.52097,0.90402 -0.60651,1.27686 -0.0894,0.38433 0.0166,0.79548 -0.12641,1.13513 -0.21579,0.51329 -0.62567,0.41881 -0.92444,1.04192 -0.31539,0.65886 0.0613,0.97551 -0.61929,1.39815 0.31922,0.83763 -0.014,0.65759 0,1.20281 0.0383,0.23877 0.2209,0.50947 0.20175,0.83251 -0.0115,0.18898 -0.0728,0.36135 -0.26303,0.43541 -0.38306,0.14556 -0.90403,-0.31028 -1.36496,-0.48393 -0.69589,-0.26175 -2.30347,-0.45329 -3.06446,-0.45456 0,0 -3.83059,0.0804 -3.83059,0.0804 0,0 -1.40455,-0.0804 -1.40455,-0.0804 0,0 -2.80908,0.26047 -2.80908,0.26047 -0.39328,0.0192 -0.91935,0.0907 -1.27176,0.26815 -0.35624,0.18131 -0.67928,0.6014 -1.12747,0.41498 -0.65758,-0.27581 -0.12512,-1.02021 -0.0996,-1.25387 0.06,-0.54651 -0.33326,-0.40222 0.0728,-1.22197 -0.76484,-0.43157 -0.31667,-0.7444 -0.68568,-1.39815 -0.3473,-0.61418 -0.92445,-0.58992 -1.00106,-1.41093 -0.0536,-0.55927 0.0396,-1.1811 -0.51841,-1.58714 -0.41114,-0.29879 -0.92827,0.0957 -1.16576,-0.47499 -0.21324,-0.51075 0.22728,-0.86444 0.083,-1.3854 0,0 -0.60013,-1.53222 -0.60013,-1.53222 0,0 -0.24515,-1.9153 -0.24515,-1.9153 0,0 0.25409,-0.8938 0.25409,-0.8938 0.0754,-0.37795 0.007,-0.78016 0.19792,-1.12236 0.11491,-0.2043 0.28218,-0.31411 0.42391,-0.48521 0.47755,-0.58097 0.22728,-0.83123 1.21429,-0.94615 0.4252,-1.28197 3.13087,-0.99978 4.08595,-0.51074 0.62695,-0.70866 1.77739,-0.9321 2.68141,-0.66397 0.34731,0.10215 0.81719,0.3639 1.14917,0.53628 0.007,-1.93316 0.4916,-1.72887 1.02149,-2.80909 0,0 -0.8938,0.51075 -0.8938,0.51075 0,0 0,-2.68141 0,-2.68141 0,0 0.76612,0.38305 0.76612,0.38305 0,0 -0.25537,-1.02149 -0.25537,-1.02149 z m 1.65991,1.02149 c 0,0 -0.12769,0 -0.12769,0 0,0 0.12769,0.12769 0.12769,0.12769 0,0 0,-0.12769 0,-0.12769 z m -0.12769,1.65993 c 0,0 -0.12769,0 -0.12769,0 0,0 0.12769,0.12768 0.12769,0.12768 0,0 0,-0.12768 0,-0.12768 z m -6.89505,4.21363 c -0.74312,-0.0638 -1.76588,-0.0307 -2.39538,0.41882 -1.22961,0.87847 -1.61777,3.04658 -1.22961,4.43325 0.0996,0.35625 0.23878,0.57331 0.39326,0.8938 0.25921,0.53755 0.19665,0.61162 0.67802,1.02149 0,0 0.89381,-0.63843 0.89381,-0.63843 0,0 0,0.8938 0,0.8938 1.19641,-0.66652 0.67163,0.14939 1.6599,0.76612 0,0 0.25539,-2.29836 0.25539,-2.29836 0,0 0.38305,-0.25537 0.38305,-0.25537 0,0 -0.63844,-0.12768 -0.63844,-0.12768 0.28985,-1.236 -0.31154,-1.43008 -0.47243,-2.55371 -0.11363,-0.79421 0.18898,-1.81443 0.47243,-2.55373 z m 14.17315,6.25661 c 0.30646,0.11492 0.82996,0.43158 1.1313,0.3256 0.29241,-0.10343 0.39072,-0.45455 0.50564,-0.70865 0.36263,-0.80442 0.65504,-1.51947 0.59629,-2.42604 -0.0728,-1.11086 -0.6346,-2.72227 -1.72503,-3.21003 -0.67802,-0.30389 -1.44541,-0.27963 -2.16811,-0.23749 0,0 0.58863,2.29834 0.58863,2.29834 0,0 -0.58863,2.8091 -0.58863,2.8091 0,0 -0.51074,0.12768 -0.51074,0.12768 0,0 0.12768,0.89381 0.12768,0.89381 0.42903,0.53627 0.34986,1.00489 0.51074,1.65992 0.98957,-0.66398 0.49032,-1.41732 1.65993,-0.76612 0,0 -0.1277,-0.76612 -0.1277,-0.76612 z m -9.9595,1.02149 c 0.20302,-0.3588 0.99212,-1.83485 1.00106,-2.15918 0.0129,-0.44817 -0.37668,-0.54393 -0.37412,-1.03424 0,0 0.19536,-0.89253 0.19536,-0.89253 0.0371,-0.32176 -0.26176,-1.98169 -0.43669,-2.22684 -0.36391,-0.5133 -2.47839,-1.06235 -2.67119,1.07767 -0.14046,1.57181 0.8555,1.88592 0.88103,3.95826 0.69206,0.0383 0.4967,0.31283 1.14918,1.27686 0,0 0.25537,0 0.25537,0 z m 5.61818,-1.27686 c 0.006,-0.40476 0.13917,-1.4288 0.27069,-1.78761 0.18259,-0.50052 0.6844,-1.01765 0.59886,-2.04297 -0.0983,-1.19641 -0.53629,-1.64842 -1.71355,-1.62926 -0.30007,0.004 -0.63588,0.0128 -0.87209,0.22599 -0.26688,0.23878 -0.59886,2.04426 -0.55416,2.42476 0.046,0.38562 0.25282,0.73803 0.21195,1.01638 -0.0485,0.31538 -0.27324,0.45583 -0.49542,0.64354 0,0 0.12769,1.02149 0.12769,1.02149 0.57203,0.3141 0.69716,0.84272 1.02149,1.40454 0,0 0.25537,0 0.25537,0 0,0 0.51074,-1.40454 0.51074,-1.40454 0,0 0.63843,0.12768 0.63843,0.12768 z m -11.10868,11.10868 c 1.53095,-1.12746 3.3658,-2.35069 5.36281,-2.00084 0.88998,0.15578 1.4403,0.75463 2.04297,0.81209 0.475,0.0447 0.94871,-0.20813 1.40456,-0.29624 0,0 2.04297,-0.17493 2.04297,-0.17493 0.4584,-0.006 1.11214,-0.0383 1.53223,0.12897 0.64354,0.25537 1.53607,1.30112 2.68141,0.54777 0.76229,-0.50181 1.5948,-1.80421 2.09532,-2.59203 0,0 2.87804,-4.46901 2.87804,-4.46901 0.55034,-0.85293 1.46073,-2.24855 2.6878,-1.72758 1.46455,0.6231 1.08916,2.3175 0.23238,3.2547 0,0 -5.34109,4.72949 -5.34109,4.72949 0,0 -1.74165,1.56799 -1.74165,1.56799 -0.47244,0.59374 0.11875,1.40454 0.32561,2.00723 0,0 0.28345,1.14917 0.28345,1.14917 0.46606,2.02382 0.56055,4.10893 -0.75078,5.87356 -1.28069,1.72375 -3.50882,2.39794 -5.52115,2.75929 -0.63077,0.11364 -2.48348,0.36518 -3.06447,0.33709 0,0 -1.14917,-0.1379 -1.14917,-0.1379 -2.6099,-0.26176 -5.60924,-0.92062 -6.95377,-3.46923 -0.64227,-1.21685 -0.70994,-2.24344 -0.70738,-3.5752 9.8e-4,-0.89892 0.31154,-2.47967 0.62693,-3.31985 0.15705,-0.41753 0.57331,-1.05085 0.30517,-1.47732 0,0 -1.75185,-1.57182 -1.75185,-1.57182 0,0 -4.14852,-3.66203 -4.14852,-3.66203 -0.81974,-0.74185 -1.94083,-1.55394 -2.04042,-2.73759 -0.14939,-1.77228 1.73909,-2.47838 2.86911,-1.12619 0,0 2.82186,4.31834 2.82186,4.31834 0.58607,0.88103 2.67757,4.06808 2.97763,4.85207 z m 6.00124,-8.04422 c 0,0 0,0.51075 0,0.51075 0,0 0,-0.51075 0,-0.51075 z m 1.02149,0.12769 c 0,0 -0.38305,-0.12769 -0.38305,-0.12769 0,0 -0.25538,0.63844 -0.25538,0.63844 0,0 -0.38306,-0.12769 -0.38306,-0.12769 0.44053,0.4801 0.78017,0.0307 1.02149,-0.38306 z m 1.27686,-0.12769 c -0.12257,0.70611 0.7559,0.92955 0.76612,0.51075 0,0 -0.25537,0.12769 -0.25537,0.12769 0,0 -0.51075,-0.63844 -0.51075,-0.63844 z m -4.08595,0.12769 c 0,0 -0.12769,0.63843 -0.12769,0.63843 0.58354,-0.0485 0.68568,-0.0778 0.89381,-0.63843 0,0 -0.76612,0 -0.76612,0 z m 6.89504,0 c 0,0 -0.76612,0.25537 -0.76612,0.25537 0,0 0,0.25538 0,0.25538 0,0 0.76612,0.12768 0.76612,0.12768 0,0 0,-0.63843 0,-0.63843 z m -8.42727,0.38306 c 0,0 -0.25537,0 -0.25537,0 0,0 -0.12769,0.63843 -0.12769,0.63843 0,0 0.38306,-0.63843 0.38306,-0.63843 z m 9.95951,0 c -0.092,0.37029 -0.0536,0.4252 0.25537,0.63843 0,0 -0.25537,-0.63843 -0.25537,-0.63843 z m 0.63843,0.25537 c 0,0 -0.12769,0 -0.12769,0 0,0 0.12769,0.12769 0.12769,0.12769 0,0 0,-0.12769 0,-0.12769 z m -12.89629,0.12769 c -0.097,0.29878 -0.10598,0.30262 0.12769,0.51073 0,0 -0.12769,-0.51073 -0.12769,-0.51073 z m 14.5562,0 c 0,0 -0.51075,0.63843 -0.51075,0.63843 0.4252,-0.1711 0.43286,-0.1877 0.51075,-0.63843 z m -14.30083,0.51073 c 0,0 -0.12768,0 -0.12768,0 0,0 0.12768,0.1277 0.12768,0.1277 0,0 0,-0.1277 0,-0.1277 z m -27.06943,38.05043 c -1.5118,0 -2.96613,0.0396 -4.469,-0.16343 0,0 -1.78761,-0.39072 -1.78761,-0.39072 -3.24066,-0.72399 -6.08934,-1.94083 -8.93801,-3.6531 0,0 -3.06447,-2.03403 -3.06447,-2.03403 -0.29368,-0.21707 -0.94104,-0.62822 -0.94104,-1.02916 0,-0.45328 1.21302,-1.10831 1.57947,-1.33815 0,0 4.97976,-3.23301 4.97976,-3.23301 0,0 2.93677,-1.88975 2.93677,-1.88975 4.23023,-2.73375 8.35705,-5.44708 13.15166,-7.09167 2.16938,-0.74442 3.24067,-0.97042 5.4905,-1.30113 0.93083,-0.13663 1.04702,-0.21962 2.04297,-0.22089 0,0 2.80909,0 2.80909,0 2.38774,0.004 6.0753,0.94743 8.29959,1.84506 0,0 2.8091,1.28452 2.8091,1.28452 2.07234,1.12618 3.79737,2.27792 6.12892,2.9023 1.28196,0.34348 2.51796,0.36774 3.83058,0.35241 3.74886,-0.0447 6.13275,-2.47455 9.32108,-3.97869 2.62267,-1.23727 4.41921,-1.77229 7.2781,-2.18471 0.81846,-0.11747 1.32665,-0.21962 2.17066,-0.22089 0,0 2.55372,0 2.55372,0 1.69056,0.0205 3.84844,0.5133 5.49049,0.927 3.43987,0.86442 6.78906,2.27408 9.83183,4.11021 0,0 4.90569,3.38879 4.90569,3.38879 0,0 3.3939,2.07744 3.3939,2.07744 0,0 5.61818,3.03382 5.61818,3.03382 0.37029,0.2043 1.7212,0.83125 1.82335,1.18876 0.10726,0.37412 -0.56948,0.79676 -0.82358,0.9985 -0.86443,0.68951 -2.34048,1.67525 -3.29812,2.25366 -2.51925,1.52074 -5.43049,2.91379 -8.29959,3.61351 0,0 -1.40454,0.26942 -1.40454,0.26942 -1.17855,0.24899 -2.36603,0.48265 -3.57522,0.48393 0,0 -2.29834,0 -2.29834,0 0,0 3.1998,5.23512 3.1998,5.23512 0.23622,0.38434 1.01767,1.46202 0.91041,1.88848 -0.0817,0.32688 -0.51202,0.46989 -0.79037,0.57842 -0.75591,0.29113 -1.5067,0.57459 -2.29835,0.75207 0,0 -2.04298,0.4469 -2.04298,0.4469 -2.50137,0.3256 -5.19554,-0.11619 -7.40579,-1.34964 -4.27875,-2.38772 -7.44664,-7.47601 -10.18296,-11.43555 0,0 -2.20768,-3.26621 -2.20768,-3.26621 -1.36497,-1.96509 -2.01233,-2.68141 -2.93167,-4.97976 0,0 -2.93679,5.4905 -2.93679,5.4905 0.7955,0.25154 2.41582,1.10448 2.68141,1.91529 -6.34344,2.43753 -12.11612,2.41327 -18.64214,0.76612 0.31154,-1.14791 1.8591,-2.27792 1.98168,-2.93679 0.0767,-0.41369 -0.5133,-1.28452 -0.7227,-1.65991 0,0 -2.28047,-3.95825 -2.28047,-3.95825 -0.21963,0.69588 -1.08917,2.21534 -1.47861,2.93676 0,0 -2.14129,3.95826 -2.14129,3.95826 0,0 -1.85017,3.06447 -1.85017,3.06447 -3.51009,5.31301 -8.70436,11.01803 -15.47044,11.48025 -1.18492,0.0817 -2.4222,-0.16854 -3.57521,-0.41498 -1.26154,-0.26942 -2.56648,-0.60395 -3.70289,-1.23345 0,0 1.73398,-3.06446 1.73398,-3.06446 0,0 2.60734,-4.21364 2.60734,-4.21364 z m 75.71779,-7.66116 c -0.88742,-1.2411 -2.6763,-2.77972 -3.83058,-3.84079 -0.96786,-0.89125 -1.99701,-1.66758 -3.06446,-2.4337 -4.83419,-3.4705 -11.13932,-6.20937 -17.10992,-4.2047 -1.12237,0.3754 -1.6331,0.50819 -2.68141,1.15812 0.31155,0.80186 1.01638,1.62289 1.55777,2.29834 1.1096,1.38413 2.3175,2.71972 3.67736,3.86251 2.57032,2.15788 5.03849,3.84589 8.29959,4.81504 0,0 1.27685,0.27708 1.27685,0.27708 0.95765,0.22982 2.7427,0.52605 3.7029,0.48902 2.90485,-0.11236 5.64499,-1.02531 8.1719,-2.42092 z m -57.07564,-9.70413 c -0.69206,-0.12513 -1.02914,-0.32816 -1.65991,-0.52351 -1.10577,-0.34347 -3.06446,-0.75208 -4.21364,-0.75335 0,0 -2.42603,0 -2.42603,0 -1.53351,0.003 -3.54839,0.54138 -4.97976,1.09044 -3.51264,1.34837 -6.43409,3.26621 -9.32107,5.6667 0,0 -3.01083,2.57926 -3.01083,2.57926 -0.63844,0.57713 -1.13513,0.88997 -1.58586,1.64459 2.82058,1.38411 5.89525,2.33411 9.06571,2.29835 0.83378,-0.0102 1.98295,-0.19408 2.80907,-0.35752 1.13769,-0.22601 2.23324,-0.4801 3.31985,-0.90913 4.71544,-1.86677 9.38237,-6.46218 12.00247,-10.73583 z m 0.12769,6.89505 c -0.71759,0.37922 -2.24599,1.63693 -2.93677,2.20257 0,0 -3.57521,2.75803 -3.57521,2.75803 0,0 -3.06447,2.05446 -3.06447,2.05446 -1.03426,0.6346 -1.9804,1.03936 -2.93677,1.83612 -1.83613,1.53096 -3.0351,3.40028 -3.95827,5.57733 1.02022,0.40476 1.32155,0.50947 2.42604,0.51074 0,0 0.51073,0 0.51073,0 1.33944,-0.007 2.43243,-0.50564 3.57522,-1.16833 2.62267,-1.52457 4.96315,-4.58137 6.55284,-7.13126 0,0 1.39305,-2.42603 1.39305,-2.42603 0.48905,-0.90019 1.7608,-3.32878 2.01361,-4.21363 z m 30.26158,0.38305 c -0.13024,0.60268 0.37922,1.38667 0.65375,1.91529 0,0 1.89487,3.5752 1.89487,3.5752 1.75568,2.86145 3.51008,5.33218 6.26171,7.33684 1.24622,0.90786 3.28025,1.80803 4.85207,1.71738 0.8389,-0.0485 1.8872,-0.45712 2.68141,-0.75462 0,0 -0.87721,-1.40455 -0.87721,-1.40455 -0.78909,-1.27431 -1.26409,-2.22812 -2.37113,-3.30962 0,0 -2.88058,-2.16555 -2.88058,-2.16555 0,0 -6.13022,-4.18811 -6.13022,-4.18811 0,0 -4.08467,-2.72226 -4.08467,-2.72226 z m -27.70785,11.49173 c 2.924,1.16323 7.84885,2.42093 10.98099,2.42604 0,0 2.29834,0.12769 2.29834,0.12769 0,0 1.65992,-0.12769 1.65992,-0.12769 0,0 0.76613,0 0.76613,0 1.9089,-0.003 5.26576,-0.85294 7.15041,-1.39305 0,0 2.04297,-0.70737 2.04297,-0.70737 0.22856,-0.0843 0.58736,-0.27198 0.82613,-0.1494 0.21451,0.11108 0.28218,0.50308 0.3422,0.71759 0,0 0.53883,1.7876 0.53883,1.7876 0.14301,0.55033 0.80825,2.34942 0.63716,2.77461 -0.16982,0.42393 -1.40199,0.80188 -1.83358,0.94999 0,0 -3.19215,1.07257 -3.19215,1.07257 0,0 -2.17066,0.51841 -2.17066,0.51841 0,0 -2.29834,0.33963 -2.29834,0.33963 0,0 -4.34133,0.47244 -4.34133,0.47244 -2.68268,0.0638 -6.84397,-0.60012 -9.44876,-1.29473 0,0 -3.83059,-1.26537 -3.83059,-1.26537 0,0 -1.91529,-0.75845 -1.91529,-0.75845 0,0 1.78762,-5.49051 1.78762,-5.49051 z m -1.9153,12.64092 c 1.73526,0 2.22302,0.27452 3.83058,0.56054 2.4056,0.42647 7.18744,1.35092 9.44876,1.35476 0,0 3.19215,0 3.19215,0 0,0 6.12894,-0.73421 6.12894,-0.73421 0,0 6.63966,-1.0534 6.63966,-1.0534 0,1.70332 -0.0421,3.77567 -1.53223,4.91974 -1.58586,1.21684 -4.6899,1.38538 -6.63967,1.6663 -5.00785,0.72015 -8.81927,0.48137 -13.79009,-0.166 -1.49009,-0.19408 -4.35536,-0.64353 -5.48538,-1.60245 -1.33815,-1.13513 -1.65736,-3.2828 -1.79272,-4.94528 z m 7.15042,12.38554 c 0.85805,-0.24388 3.7795,-0.12768 4.85207,-0.12768 0,0 6.51198,0 6.51198,0 0.91424,0 2.64055,-0.10215 3.44752,0.12768 0,0 -4.72821,5.80078 -4.72821,5.80078 -0.37796,0.42902 -1.24749,1.75185 -1.78122,1.79143 -0.46095,0.0344 -1.78888,-1.34709 -2.16172,-1.69951 0,0 -4.35282,-4.10509 -4.35282,-4.10509 -0.59629,-0.59119 -1.29218,-1.10959 -1.7876,-1.78761 z"
       style="fill:#000000;fill-opacity:1" />
  </g>
</svg>
