<?xml version="1.0" encoding="UTF-8" standalone="no"?>
<svg
        xmlns="http://www.w3.org/2000/svg"
        width="128.54231"
        height="141.43414"
        viewBox="0 0 166.32762 277.80065"
        version="1.1"
        id="svg8">
    <metadata
            id="metadata2046">
    </metadata>
    <defs
            id="defs2"/>
    <g
            id="layer1"
            transform="translate(-24.360961,-9.5996764)">
        <path
                style="opacity:0.983923;fill:#000000;fill-opacity:1;stroke:#ffffff;stroke-width:0.318029;stroke-miterlimit:4;stroke-dasharray:none;stroke-opacity:1"
                d="m 58.963306,277.54829 v -1.32292 h 0.264583 l -0.264583,1.32292 m 92.074994,0 v -1.32292 h 0.26459 l -0.26459,1.32292 m -92.604161,-2.11667 c -2.144977,-8.28672 -4.422246,-16.62565 -5.480844,-25.13542 -0.572029,-4.5966 -0.4953,-9.13844 -0.608541,-13.75833 -0.09208,-3.76449 -0.831321,-7.89146 -0.173567,-11.64167 0.546365,-3.116 2.775215,-6.35847 4.034102,-9.26042 2.44475,-5.63615 4.54316,-11.47868 5.963708,-17.4625 0.904346,-3.80947 1.649942,-7.74303 2.041261,-11.64166 0.399256,-3.97828 0.614098,-8.01264 1.604698,-11.90625 0.673364,-2.64689 1.982522,-5.21256 3.144572,-7.67292 1.788055,-3.78566 3.647017,-7.6237 5.972705,-11.1125 2.627841,-3.94203 5.89227,-7.37843 8.789458,-11.1125 2.475441,-3.19061 4.713287,-6.71512 6.991614,-10.05416 -2.674937,0.40084 -4.665133,2.30214 -7.14375,3.1832 -1.348846,0.47942 -2.665148,-0.27305 -3.96875,0.21669 -1.81266,0.68104 -3.429793,1.97326 -5.027083,3.03821 -3.225271,2.15027 -6.450012,4.37886 -9.260416,7.06596 -2.174875,2.07963 -4.201319,4.25874 -6.085152,6.60427 -1.134005,1.41182 -2.303992,3.35253 -3.969015,4.18597 -1.367896,0.68474 -3.525837,0.576 -5.027083,0.57653 -3.721894,0.001 -7.403571,-0.3564 -11.1125,-0.51885 -4.329906,-0.18944 -8.642615,-0.47757 -12.964583,-0.78052 -2.686579,-0.18812 -5.609961,-0.20823 -8.202083,-1.02235 -2.41644,-0.75883 -4.180523,-3.41604 -6.35,-4.77097 -3.9068112,-2.43998 -7.7916082,-5.05195 -11.10206809,-8.27696 -2.15011001,-2.09444 -3.99079001,-4.54342 -5.89741001,-6.85535 -2.05113,-2.48708 -4.7677299,-5.34882 -5.7546799,-8.46667 1.6043199,0.83132 2.8930599,2.19895 4.2333299,3.39566 2.51928,2.24949 5.01793,4.50903 7.67292001,6.60268 8.11648189,6.40054 16.95872409,12.92357 27.25207409,15.22571 4.297098,0.96097 8.872537,0.907 13.229167,0.48551 2.468827,-0.23891 5.341408,-0.18547 7.671593,-1.14141 1.139296,-0.46752 1.605756,-1.47426 2.416704,-2.31934 0.769938,-0.80221 1.716352,-1.44727 2.611702,-2.10052 4.506384,-3.28745 9.248511,-6.26137 14.022917,-9.14136 3.135841,-1.8915 6.495785,-3.48906 9.525,-5.54566 1.249362,-0.84799 2.192337,-2.06296 3.439583,-2.89428 1.287992,-0.85857 2.985823,-1.1467 4.497917,-1.25069 1.534318,-0.1053 3.249347,-0.0487 4.756414,-0.29712 0.529431,-0.0873 1.127917,-0.36037 0.932917,-1.00992 -0.244736,-0.81571 -1.306244,-1.28323 -1.985165,-1.65761 -1.455737,-0.80275 -2.738702,-1.72958 -3.96875,-2.84956 -4.150254,-3.77852 -9.491662,-7.70917 -14.816666,-9.6065 -3.049852,-1.08664 -6.153944,-2.07168 -9.260417,-2.98132 -2.14921,-0.62918 -4.737364,-1.19089 -6.600031,-2.48523 -0.865452,-0.6014 -1.220523,-1.5666 -1.925637,-2.31378 -3.966898,-4.20529 -5.926931,-9.864731 -9.208029,-14.627761 -3.449373,-5.00697 -7.93459,-9.24083 -11.276277,-14.2875 -1.710796,-2.58339 -2.154238,-5.91264 -3.475567,-8.73125 -3.452812,-7.36494 -6.184106,-14.48911 -7.784041,-22.48958 -0.58764,-2.93873 -1.600465,-6.25343 -1.27,-9.26042 1.35546,1.89998 1.648354,4.903 2.21562,7.14375 1.068123,4.21773 2.268538,8.42936 3.982773,12.43542 1.824302,4.2627 3.868473,8.61245 6.508221,12.43542 2.080683,3.01307 4.652962,5.59302 6.590771,8.73125 3.528218,5.71367 6.18146,12.37826 10.649214,17.4625 1.647296,1.8743 3.618706,3.76105 5.77215,5.045341 1.547548,0.92313 3.239294,1.44145 4.7625,2.45692 5.43851,3.62532 10.489671,7.58243 16.404166,10.46083 3.581136,1.74281 7.187407,3.30359 10.583334,5.39776 1.309158,0.80751 2.720975,1.05939 3.704166,2.30373 h 0.264585 c 1.04246,-2.66435 -2.456393,-3.19379 -2.99482,-5.55652 -0.262467,-1.15305 0.138377,-2.30716 -0.211931,-3.43931 -0.661459,-2.13863 -1.89918,-4.12036 -2.936611,-6.08542 -2.352675,-4.45611 -4.97496,-8.785491 -7.792243,-12.964581 -1.304132,-1.9349 -3.030009,-3.71661 -4.057121,-5.82084 -0.789781,-1.61819 -0.09472,-2.91253 -0.2921,-4.54289 -0.299244,-2.46909 -1.359165,-4.9956 -2.094706,-7.36336 -2.231496,-7.18052 -5.593027,-14.5116 -6.7564,-21.96041 -0.337344,-2.1598 -0.189707,-4.4286 -0.424657,-6.61459 -0.608277,-5.66208 -1.254389,-11.21383 -1.004093,-16.93333 0.147373,-3.36576 0.903816,-6.6966 1.048014,-10.05416 h 0.264584 c 0,8.8257 -0.431271,17.43736 1.219993,26.19374 0.316707,1.67879 0.669661,3.47345 1.402557,5.02709 0.733425,1.55469 1.684337,2.76092 2.017977,4.49791 1.41896,7.38267 2.431785,15.20058 5.268912,22.225 1.103842,2.73315 2.900892,5.09297 4.296304,7.67292 1.635919,3.02445 2.982119,6.18781 4.514321,9.26042 1.831446,3.67241 3.455987,7.440871 5.291666,11.112501 1.22264,2.44528 2.210859,4.64476 4.271964,6.47038 0.85196,0.75459 1.68592,3.51208 2.96175,3.46181 2.34235,-0.0926 2.17117,-3.02234 1.30624,-4.37594 -1.52611,-2.3884 -6.35132,-5.34988 -2.89189,-8.32591 0.47334,-0.40693 1.00409,-0.6694 1.56104,-0.93451 -0.79798,2.19022 0.13547,5.33585 2.91042,5.6306 1.10172,0.11694 2.37542,-0.45191 3.43958,-0.69586 1.98305,-0.45429 4.0468,-0.78025 6.08541,-0.69109 1.2372,0.0542 2.51302,0.29845 3.70417,0.63209 0.84323,0.23627 1.7735,0.71147 2.64557,0.34396 2.28177,-0.96176 2.65906,-3.22527 1.85235,-5.2197 0.58446,0.22675 1.08638,0.45402 1.56025,0.88477 2.97867,2.70774 -0.46488,4.83367 -1.53644,7.31731 -0.58473,1.35493 -0.28363,3.09907 -0.0238,4.49792 1.00621,-0.49054 1.47822,-1.26841 2.23943,-2.06137 0.58632,-0.61092 1.33244,-1.03267 1.89362,-1.67031 0.99298,-1.12792 1.61634,-2.60959 2.2823,-3.94124 2.48867,-4.97681 4.8387,-10.025591 7.16015,-15.081251 1.14459,-2.49317 2.37279,-5.02734 3.73539,-7.40833 1.26418,-2.20821 2.77389,-4.23942 3.73592,-6.61458 2.9636,-7.31573 3.89652,-15.36092 5.53138,-23.01875 0.34078,-1.59623 1.36578,-2.75775 1.97194,-4.23334 0.71966,-1.75207 1.04828,-3.70363 1.39964,-5.55625 1.63222,-8.60557 1.1856,-17.2503 1.00648,-25.92916 h 0.26458 c 0.23045,2.91888 0.91969,5.80019 1.04801,8.73125 0.29052,6.63443 -0.37226,13.00427 -1.00303,19.57916 -0.16722,1.74308 0.0241,3.5777 -0.26167,5.29167 -1.32636,7.94756 -4.82256,15.57655 -7.07946,23.28333 -0.63156,2.15689 -1.51897,4.37383 -1.79017,6.61459 -0.15954,1.31815 0.46355,2.38707 -0.0336,3.70416 -1.13507,3.00752 -3.66448,5.54964 -5.43216,8.20209 -2.64769,3.97298 -5.06968,8.167681 -7.20911,12.435411 -0.88185,1.75922 -2.05369,3.59887 -2.50057,5.5327 -0.1868,0.80937 0.11297,1.59438 -0.0206,2.40586 -0.14605,0.88583 -0.61198,1.64412 -1.20041,2.30452 -0.33841,0.37941 -1.14062,0.91731 -1.03638,1.51554 0.13573,0.77972 1.40521,0.60827 1.91294,0.46381 1.77562,-0.50483 3.3745,-1.93437 5.02708,-2.76278 2.79162,-1.39912 5.71633,-2.4974 8.46667,-3.98515 4.36245,-2.35956 8.40475,-5.16996 12.43542,-8.04334 3.86,-2.75166 8.21716,-4.36721 11.61812,-7.773451 5.19826,-5.20727 7.97533,-12.56189 11.71918,-18.76187 1.83013,-3.0308 4.3561,-5.33982 6.36985,-8.20209 2.69425,-3.82905 4.85166,-8.39919 6.69237,-12.7 1.42399,-3.3274 2.5654,-6.8109 3.45361,-10.31875 0.79983,-3.15912 1.42107,-6.53891 2.74478,-9.525 h 0.26459 c -0.0262,3.17209 -0.79428,6.43732 -1.47532,9.525 -1.06495,4.82891 -2.31167,9.68164 -4.13491,14.2875 -1.11575,2.81887 -2.57096,5.4528 -3.83302,8.20209 -1.17078,2.54979 -1.45256,5.57318 -2.91465,7.9375 -3.0644,4.95538 -7.54697,8.92995 -10.83442,13.75833 -2.10026,3.08478 -4.05474,6.24205 -5.83009,9.525001 -1.279,2.36485 -2.53021,4.28546 -4.25609,6.34974 -0.50297,0.60166 -0.83635,1.36445 -1.45442,1.86134 -1.36842,1.09961 -3.32052,1.56316 -4.95458,2.10767 -3.15833,1.05251 -6.3672,1.94204 -9.525,2.99852 -5.20991,1.74308 -9.7073,4.86754 -14.02292,8.20658 -1.6727,1.29408 -3.26866,2.6416 -4.76224,4.14073 -0.60377,0.6059 -1.46684,1.28138 -1.76582,2.11164 -0.27755,0.77073 0.28363,1.17422 0.9771,1.28879 1.75842,0.29051 3.55097,0.16536 5.28638,0.68474 2.19419,0.65669 3.43799,2.45189 5.29166,3.66818 3.58722,2.35347 7.43162,4.37859 11.1125,6.58707 4.31218,2.58709 8.66802,5.23743 12.7,8.24812 0.86757,0.64796 1.83912,1.26074 2.57334,2.06348 0.8554,0.93531 1.18745,1.83224 2.4548,2.31061 2.32172,0.8763 4.96809,0.88397 7.40728,1.12792 4.28678,0.42862 8.72543,0.42466 12.96458,-0.4281 9.11516,-1.83382 17.38577,-7.36467 24.60625,-12.95823 2.60828,-2.02062 5.22739,-4.03939 7.67293,-6.25739 2.11799,-1.92088 4.30159,-4.25239 6.87917,-5.53641 -0.83133,2.60932 -3.01652,4.99824 -4.67016,7.14375 -4.87733,6.32724 -10.43783,11.07387 -17.02569,15.5231 -1.447,0.97711 -2.88369,2.01163 -4.23333,3.1205 -0.93372,0.76729 -1.7362,1.76583 -2.91042,2.16747 -1.72905,0.59134 -3.75602,0.4908 -5.55625,0.66516 -4.84743,0.4691 -9.69724,0.70458 -14.55208,1.0369 -3.79862,0.26035 -7.56073,0.50562 -11.37708,0.50562 -1.75181,0 -3.90234,0.14182 -5.55625,-0.53155 -1.70815,-0.69559 -2.80406,-2.58789 -3.91663,-3.96637 -2.06428,-2.55746 -4.17327,-5.14191 -6.66671,-7.29588 -2.53867,-2.19313 -5.20144,-4.11401 -7.9375,-6.04547 -1.78435,-1.25994 -3.77137,-2.81358 -5.82083,-3.60574 -1.12607,-0.4355 -2.05899,0.25162 -3.175,0.0418 -1.76609,-0.33178 -3.37423,-1.72085 -5.02708,-2.40929 1.13744,2.63604 3.08345,4.93316 4.53469,7.40833 1.01679,1.73408 1.83489,3.58167 2.89084,5.29167 1.36445,2.2098 3.0726,4.1648 4.46643,6.35 3.37238,5.2869 6.42911,10.90215 8.89714,16.66875 1.66026,3.87958 1.85923,8.01846 2.27436,12.17083 0.43524,4.35372 1.03029,8.69897 2.04126,12.96458 1.41155,5.95551 3.24062,11.8364 5.66129,17.4625 0.95277,2.21457 1.92617,4.41722 2.91703,6.61459 0.59928,1.32979 1.49331,2.78077 1.71477,4.23333 0.45138,2.96069 0.0564,6.26586 0.0564,9.26042 0,6.91859 -0.2913,13.80172 -1.43801,20.6375 -1.11389,6.63901 -3.28771,13.00943 -4.6474,19.57917 h -0.26459 c 0.45429,-5.74617 2.17805,-11.49377 3.06282,-17.19792 1.30307,-8.40264 1.61528,-17.77339 0.29845,-26.19375 -0.29977,-1.91691 -1.61264,-3.41022 -1.95157,-5.29167 -1.55284,-8.61854 -3.92139,-16.96826 -6.32539,-25.4 -1.65735,-5.81369 -3.08187,-11.79539 -5.19906,-17.4625 -0.78238,-2.09418 -2.49688,-3.34116 -3.35016,-5.29167 -1.38112,-3.15595 -1.78461,-6.78047 -2.85194,-10.05416 -1.07765,-3.30597 -2.9374,-6.62887 -3.5269,-10.05417 h -0.26458 c -0.42598,3.37053 -0.44212,6.92335 -0.5252,10.31875 -0.0706,2.88158 -0.0349,5.8428 -1.41155,8.46667 -1.74307,3.32211 -4.43045,6.10261 -7.05908,8.73125 -2.98186,2.98185 -6.06134,5.95762 -9.78959,7.99835 -1.99231,1.09061 -4.26005,2.7387 -6.61458,2.81437 -2.599,0.0833 -5.55625,-1.93198 -7.67291,-3.25225 -6.35715,-3.96558 -12.971203,-9.73297 -16.33194,-16.55631 -1.48299,-3.01095 -1.395148,-6.77015 -1.395148,-10.05416 0,-3.89361 -0.184679,-7.76552 -0.264583,-11.64167 -1.844675,2.24499 -2.885017,5.23452 -3.884348,7.9375 -1.286404,3.47874 -2.515129,7.00114 -3.484033,10.58333 -0.423863,1.56713 -0.604838,3.24935 -1.203855,4.76224 -0.713845,1.8034 -2.455068,2.89084 -3.214158,4.76276 -3.242469,7.99651 -5.0673,16.82989 -7.375789,25.13542 -1.585913,5.70495 -2.844271,11.47842 -4.355042,17.19792 -0.590021,2.23335 -1.670315,4.32303 -2.031206,6.61458 -0.529696,3.36339 -0.486304,6.92388 -0.635,10.31875 -0.336815,7.69514 0.854339,15.47363 2.268008,23.01876 0.463286,2.47282 1.032933,4.92651 1.447006,7.40833 0.182827,1.0959 0.623888,2.37913 0.243417,3.43958 z"
                id="path857"/>
    </g>
</svg>
