<svg xmlns="http://www.w3.org/2000/svg" viewBox="0 0 100 100" width="100" height="100">
    <defs>
        <path transform="translate(15,15) scale(.7)" id="beetle"
              d="m 40.609213,2.4999699 c -4.308283,0.5837847 -9.222735,4.8972859 -7.395616,9.6159351 1.342874,4.205024 4.04091,7.755595 6.368987,11.43365 -2.265435,-0.661582 -7.190057,0.660527 -8.053074,-2.533084 -1.050161,-1.567626 -1.102099,-3.154425 -1.353953,-3.217513 0.534686,-0.85125 -1.164158,0.281405 0.0086,-1.043336 -1.845935,0.997233 0.906581,-1.055509 -1.021086,-0.396179 1.255833,-2.053979 -1.623149,0.959077 0.352537,2.075096 1.612658,2.773931 2.408133,6.602014 6.392251,5.248051 3.70068,0.09373 2.540634,1.562257 1.8774,4.304533 0.691186,1.539666 2.921985,5.936824 2.41867,6.093045 -3.516614,-0.268853 0.98551,5.477272 -3.06931,3.591234 -2.11839,-1.104323 -3.953869,-0.178106 -3.514765,-3.421398 -0.482047,-3.312818 -1.89585,-7.079304 -0.48791,-10.183407 -2.465019,3.22897 -1.606755,-3.480474 -4.318506,-3.983765 -1.859318,-1.264239 -5.390903,-4.517347 -3.57951,-6.449718 -1.714169,-0.339022 -0.666165,2.910748 -1.702931,0.867997 -0.335203,2.068792 3.630212,4.721653 5.394015,6.437245 1.510298,0.802571 3.080541,5.806255 1.074994,2.224362 0.206086,1.56845 -2.240214,1.34409 0.06317,2.463408 0.439331,1.581201 -0.339203,2.107615 0.60132,3.27007 -0.81146,0.862144 0.806479,2.607496 0.492244,3.573123 0.264541,1.661964 1.359648,4.44173 2.394243,5.987922 0.739318,3.105808 7.674902,1.419477 4.521269,5.599911 1.04773,2.486484 3.274075,3.665592 5.380346,3.646775 -1.698617,2.746518 -7.722679,-1.508425 -8.93567,2.979624 -0.222581,1.845066 -3.224028,3.750532 -1.946619,4.374258 -0.469855,1.559862 -3.022628,4.451008 -1.102926,3.955583 -1.159525,3.208171 -3.617825,5.558019 -5.477249,8.484016 -0.635002,1.452076 -0.732774,3.308085 0.717889,3.403493 -0.351336,-2.119961 0.258291,-4.752658 1.993949,-6.44362 1.66376,-1.561258 2.695517,-3.706626 3.527632,-5.761786 1.444552,2.559998 0.14215,-2.909765 1.860512,-3.676081 1.191917,-1.723077 1.609948,-6.095599 4.10235,-3.740628 -1.683366,4.912987 -1.010282,10.277913 -0.960682,15.289337 -4.0633,0.440394 -4.95479,4.874346 -4.962236,8.34306 -0.181821,3.340302 -1.494139,6.975939 -0.822672,9.432591 -0.119153,3.863242 -4.133586,6.108138 -4.491559,9.888934 0.04187,1.116559 -0.02397,3.716019 1.456318,3.074109 -0.950466,-2.739795 0.150464,-6.4768 2.177138,-8.877674 1.711565,-0.852948 1.05177,-5.284685 1.933084,-5.193831 1.468104,2.468491 -0.318442,-3.383516 0.627149,-4.448984 1.144834,-2.620096 0.363902,-7.554413 1.985669,-8.903563 3.29995,-2.24578 3.108727,1.87841 4.058405,3.99589 1.668215,4.385962 5.313305,9.177881 10.439493,9.110912 2.091901,0.09988 6.154226,-0.951133 7.85906,-3.646431 2.540087,-2.762147 3.756136,-6.443017 4.646204,-10.019367 2.831512,-0.198288 4.195755,0.889256 3.590955,3.901772 0.896993,3.103129 1.349385,9.01096 1.322736,10.549118 1.364149,-2.446936 0.423692,2.770299 1.554804,3.544847 1.347061,2.506886 3.804655,4.928087 3.176604,8.194431 0.690659,1.36811 -1.516142,2.91892 1.055035,1.28286 0.521091,-2.961787 -0.80286,-6.152046 -2.988599,-8.55622 -2.383968,-3.536466 -0.305655,-6.203813 -1.790273,-10.072686 -0.587378,-3.224776 -0.143071,-6.991944 -1.944936,-9.681052 -1.297975,-1.906631 -4.969755,-1.327184 -3.303269,-4.752753 0.109757,-4.277636 0.217973,-8.641792 -1.11568,-12.759432 3.635774,-1.536438 3.256126,4.0839 5.173371,6.115272 0.427953,1.455755 -0.41948,3.25368 0.990871,1.687457 0.608999,2.099622 1.732132,3.985359 3.201858,5.517396 2.565461,0.93153 1.678465,6.837151 2.730248,6.315986 2.108014,-1.893904 -1.67349,-5.461231 -3.053852,-7.457926 -0.917606,-1.358372 -2.99531,-4.711298 -1.551098,-4.262736 -0.244917,-1.420112 -2.499101,-4.100386 -1.554831,-4.564029 -2.017661,-3.020573 -3.45344,-7.431498 -8.120604,-5.808135 -2.326067,1.275761 -4.431516,-1.704919 -1.198094,-1.043385 2.87971,-0.402133 3.960841,-4.008743 2.877741,-6.389374 4.014354,0.07957 5.648747,-2.77715 6.887313,-5.896788 0.661725,-2.082557 0.660696,-3.290504 1.26842,-5.326554 0.857209,-0.632275 -0.763643,-1.71292 0.59672,-2.289409 -1.439571,-1.969037 2.360636,-2.745789 0.119514,-3.738209 0.0027,-2.082065 -1.851332,2.879212 -0.879778,-0.288384 1.270771,-3.126186 4.814743,-4.517045 6.758344,-7.345627 0.945852,-1.840736 0.568661,-1.909716 -0.38704,-0.899684 0.696461,-1.934876 -1.346781,-2.453123 -0.211189,-0.291182 -0.863425,2.952759 -3.917644,4.503208 -5.851389,6.691539 -1.096963,1.610833 -0.927902,4.850905 -2.767408,2.525654 1.794933,3.651904 -0.456018,7.769219 -0.621193,11.575599 -0.181039,1.75972 -3.376674,1.493666 -5.237301,2.135091 0.280034,-1.800517 1.009615,-3.882694 -1.371901,-4.077826 1.300072,-2.869165 3.076535,-5.654895 2.201405,-8.65087 -1.44647,-2.874034 6.785955,0.466109 6.870712,-3.422104 0.533384,-1.605259 4.138723,-5.695336 1.533911,-5.988961 1.614682,1.255556 -1.127659,-0.08726 0.347743,1.320793 -1.916477,-0.993681 1.104362,1.253106 -1.01919,0.316169 1.376789,1.399938 -0.808002,-0.103981 -0.08557,1.781724 -0.644958,4.414834 -4.61084,3.654758 -7.985111,4.455869 -2.48021,-0.32417 2.583009,-4.382909 2.867129,-6.147061 C 65.835226,14.3059 68.542424,10.314935 66.134324,6.8060968 64.904813,4.4726711 59.560552,1.4906361 59.12502,3.1806702 c -2.394691,0.1849582 4.886907,3.1728376 1.305594,4.3036526 3.003037,-0.307628 2.644703,2.8825992 1.67755,4.0270852 -0.515428,1.587045 -1.208797,2.664201 -2.090412,3.880926 0.09741,2.724855 -3.501924,5.494019 -5.995101,6.695536 1.628403,-1.172804 -2.591457,-7.379733 -0.819341,-3.269721 2.284814,2.644178 -1.498339,5.204058 -2.979458,1.699883 -1.414751,0.695354 -3.81429,3.483256 -4.210665,0.189707 0.161361,-1.136493 2.394437,-5.224476 0.294777,-2.21062 -1.334427,1.754724 0.79866,4.949241 -2.266357,2.723689 -2.423752,-1.853693 -4.061531,-4.438995 -4.786979,-6.750955 -0.593234,-0.954565 -1.328358,-2.46386 -1.722202,-3.407212 -0.804082,-1.3652392 -0.565249,-3.7917822 1.952829,-3.6006312 -2.90027,-1.284881 1.576139,-2.7932558 2.060677,-4.3296939 -0.93856,-0.340291 -1.944048,1.1331864 -0.937351,-0.632346 z M 61.498869,27.756507 c -1.011538,1.169163 -0.96708,0.724994 0,0 z M 26.024402,69.305166 c 0.583845,1.455754 -0.950079,0.900754 0,0 z m 47.8907,0 c 0.865775,0.830886 -0.522025,1.296686 0,0 z"
        />
        <path transform="translate(15,15) scale(.7)" id="grasshopper"
              d="m 96.607563,26.914552 c -0.03867,-0.06906 -0.396308,0.255519 -1.282663,1.247234 -6.288111,7.241305 -7.4919,9.036294 -13.523504,16.488054 -1.660057,-1.877605 -4.35124,-2.730379 -6.925922,-1.162198 -0.22199,0.199728 -0.411683,0.419796 -0.585826,0.649602 -0.118706,-0.426823 -0.355443,-0.815065 -0.793693,-1.138578 -5.044608,-0.01088 -10.128266,-0.377429 -15.188843,-0.425189 -0.249802,0.07257 -0.425595,0.166551 -0.571649,0.269293 -2.896907,-1.23226 -6.42624,-1.335208 -9.486531,-1.273224 -6.861001,0.248491 -13.726062,0.268241 -20.591167,0.304718 -3.15898,-1.884401 -6.157021,-4.033851 -8.900703,-6.500731 -0.955614,-0.630649 -1.799499,-0.86447 -2.513371,-0.810226 -1.032182,0.07849 -1.779216,0.763832 -2.210998,1.696055 -0.124499,-0.113445 -0.251684,-0.223746 -0.37559,-0.337796 -0.682245,-0.337748 -1.285416,-0.505678 -1.811788,-0.536217 -3.1114971,-0.180532 -3.5226699,4.406395 -1.648815,6.784188 -0.03943,0.0013 -0.07837,0.0036 -0.118162,0.0048 -3.1384563,-0.382509 -9.65076163,0.622909 -6.9282913,5.137754 1.1337879,0.578232 2.311926,1.01744 3.5149303,1.374792 0.1169522,3.749513 3.576551,6.902434 6.994436,7.93694 2.135468,0.467979 4.288679,0.840825 6.448761,1.17636 1.9176,3.640917 4.292284,7.044699 6.871592,10.228255 1.015784,1.719544 -2.763397,4.794323 1.074792,3.736983 5.323182,-1.045366 -1.273079,-6.248647 -1.797624,-9.040079 -0.691388,-1.464231 -1.416603,-2.910223 -2.149583,-4.351148 3.609592,0.4696 7.233388,0.85448 10.847147,1.263766 1.683268,0.817508 3.472585,1.446513 5.340899,1.894476 0.700423,0.510735 1.615549,0.73246 2.562969,0.751171 -0.134941,1.47826 -0.227766,2.980466 -0.321257,4.445641 -0.112938,1.769916 -0.22676,3.485455 -0.415745,5.033803 1.275022,3.032981 2.243045,0.183109 2.671631,-1.629899 0.612481,-2.621144 0.500367,-5.355877 0.512594,-8.090478 1.701728,0.370984 3.416045,0.638814 5.147199,0.744083 -0.08054,1.154131 -0.169159,2.276369 -0.295272,3.31414 1.274022,3.035302 2.242314,0.185672 2.671629,-1.627542 0.128064,-0.548275 0.223012,-1.103419 0.295274,-1.660619 0.375185,-0.02383 0.751598,-0.05975 1.129123,-0.10631 2.174802,-0.06979 4.796356,-0.360437 6.933011,-1.320453 0.757352,3.330249 2.51094,6.68967 0.165353,9.73928 1.619337,3.526299 3.968936,-2.653979 2.709425,-4.601537 -0.06936,-2.015094 -0.714027,-4.154046 -1.065344,-6.226708 0.786454,-0.63908 1.407969,-1.452064 1.792898,-2.463759 0.327405,0.121452 0.675654,0.223553 1.070067,0.281097 0.578172,0.09071 1.244031,0.08551 1.929906,0.02129 0.747725,3.585126 1.233236,7.415647 4.582637,9.096766 3.625687,2.489302 2.622406,-2.888405 -0.271651,-2.867687 -1.455721,-1.922003 -1.477514,-4.399283 -1.736205,-6.824352 1.705936,-0.650001 3.155274,-1.777874 3.439338,-3.396829 0.569404,2.694581 1.047068,5.886652 3.96375,6.151132 3.402341,-1.855376 5.953426,-5.80072 6.167657,-9.89046 0.07249,-1.384311 -0.254119,-2.331181 -0.460624,-2.971627 -0.122629,-0.380308 -0.51309,-1.108861 -0.668492,-1.499994 0.772696,-1.185201 1.943395,-2.273224 2.756664,-3.257452 5.621458,-6.389572 4.457474,-5.831138 10.14086,-12.160516 7.706768,-10.55565 -11.774012,13.066953 -13.284928,14.943167 -0.11781,-0.174824 -0.204543,-0.287616 -0.22204,-0.311805 6.250212,-7.475031 6.579772,-8.065116 12.191224,-15.009311 0.836604,-1.018335 2.305536,-3.070038 2.220456,-3.222028 z"/>
        <path transform="translate(15,15) scale(.7)" id="ant"
              d="m 48.591044,39.786324 c -2.822493,1.277334 -2.974704,7.227628 -6.293169,3.648293 -6.401904,-4.687942 -9.739496,-12.231399 -15.279235,-17.767221 -1.200656,-1.529617 -4.223171,-6.173751 -5.861667,-2.850607 3.833877,0.590375 4.601983,5.369336 7.948304,6.862359 4.128226,2.85822 4.997576,8.287337 7.917903,12.143171 0.966832,3.230399 5.725819,4.003746 6.647717,5.931521 0.0932,3.299987 -3.686707,-1.884166 -5.416879,-1.625745 -4.04949,-2.841438 -8.427513,0.376305 -9.008176,4.727377 -1.747555,4.859651 -1.444287,10.395988 -3.983982,14.949474 -1.831503,2.753411 -5.846286,4.753403 -5.518992,8.486111 7.452218,-6.952196 12.291227,-16.725304 13.292805,-26.868446 3.784226,0.824199 7.886502,1.950636 10.723643,4.719362 -0.112462,3.080799 -4.573308,4.359954 -6.616764,6.447876 -4.195498,2.332098 -3.574256,7.741507 -2.954015,11.742757 0.620364,4.862157 2.50046,10.601804 -1.028033,14.821515 -1.239662,1.452226 -4.85968,6.450586 -2.591327,6.966629 1.535544,-0.857971 2.521025,-2.206979 3.27233,-3.765032 1.145592,-1.954244 2.291185,-3.908492 3.436778,-5.86274 -1.771627,-6.038484 0.396908,-12.39374 -1.150329,-18.455896 0.07118,-4.735371 6.304662,-5.281013 9.069443,-8.129675 0.377104,2.262595 0.75421,4.525191 1.131307,6.787787 -5.210598,1.597259 -7.757249,7.315637 -7.261793,12.442103 0.401322,7.783219 4.295285,14.872163 8.644498,21.123961 3.506231,3.961182 6.490922,-2.61005 7.901492,-5.287588 4.088515,-6.628089 7.421123,-15.247323 3.965714,-22.828594 -1.697895,-3.498559 -6.561215,-5.867899 -5.340794,-10.342039 0.49842,-3.943566 4.956035,1.635598 7.215067,2.221398 4.372695,2.132961 1.261381,6.945916 1.840424,10.552907 0.105123,3.97002 0.54889,8.036883 -0.560717,11.915636 1.686506,2.758129 3.190955,5.678781 4.988799,8.337535 1.498236,1.692545 3.514046,2.059353 2.107002,-1.057992 -2.058066,-3.934414 -6.053074,-7.391118 -5.000302,-12.317488 0.23027,-5.527102 2.879711,-11.415786 0.346362,-16.739617 -2.585343,-3.088863 -6.783746,-4.500052 -9.116977,-7.81177 1.496138,-3.276457 6.014153,-3.963149 9.175652,-5.135903 3.232401,-1.101373 1.811463,4.852094 3.611165,6.819055 1.410798,3.401213 2.735982,6.841469 3.566173,10.428895 1.91371,3.399144 4.165507,7.026167 7.857543,9.275364 0.25824,-4.783594 -5.826273,-6.591949 -6.698188,-11.045581 -1.670392,-5.566251 -1.521326,-11.89813 -4.9827,-16.785408 -3.616978,-3.422607 -8.711016,0.673235 -12.076463,2.659513 -1.525014,-3.352963 3.151044,-2.538227 4.375534,-5.063828 5.863955,-6.744674 8.742399,-16.262458 16.766626,-20.97451 3.61044,-2.039388 -3.692778,-1.358919 -3.6818,1.216523 -2.705724,3.729344 -6.326542,6.719601 -8.692031,10.737719 -2.712949,3.864553 -5.680239,7.955918 -10.182473,9.841713 0.196773,-2.843297 -6.134907,-5.216106 -1.415849,-5.956622 3.568137,-1.379142 3.173954,-5.623059 2.245147,-8.587967 -1.496892,-4.461827 0.904944,-8.77252 3.196387,-12.463593 2.382948,-4.116084 3.279354,-9.2002967 2.450409,-13.8720287 -2.794285,-4.55944242 -3.297556,2.5558769 -2.101016,4.6406457 0.378345,4.440033 -0.905507,8.985075 -2.768899,12.99413 -1.447516,3.786942 -4.069836,1.177412 -5.282909,-1.077599 0.383844,1.736272 -1.754378,1.698249 -2.589765,1.192585 -0.425402,-3.468292 -3.070546,5.453456 -5.005019,0.700797 -2.312875,-3.949302 -3.352267,-8.656047 -3.398677,-13.2063971 1.101621,-2.1033807 1.126323,-9.89439485 -1.972718,-5.2463534 -1.052819,5.5794692 0.57243,11.4396495 3.709657,16.1075595 2.487518,3.472048 2.89997,7.842865 1.57981,11.830954 -1.415079,3.595774 1.063112,7.374054 4.848444,7.853015 z"
        />
        <path transform="translate(15,15) scale(.7)" id="spider"
              d="m 32.714946,2.5 c -1.039343,4.5869204 -0.386031,9.765796 0.555273,14.453362 1.665516,3.765208 2.547182,7.929996 4.045524,11.543347 3.045636,3.117777 4.581889,7.349169 6.633002,10.787924 C 41.824348,39.447905 36.58519,36.231017 33.666838,34.72237 27.616701,32.606293 24.453722,27.341849 21.137419,22.352905 17.457649,18.716141 16.124454,13.623916 14.530861,8.9452157 14.778771,14.29911 17.551664,19.092693 19.68692,23.88234 c 3.915305,3.443562 5.940456,8.538168 9.843737,11.837328 5.375708,1.051843 10.290787,3.468169 14.452081,6.914098 -2.531538,0.345897 -5.237826,1.436154 -7.550892,3.055151 -4.417706,1.507707 -7.685916,5.628436 -12.185679,6.374516 -8.272499,1.377245 -15.4671814,-3.950341 -21.4363715,-8.856593 -1.6175178,-0.238863 3.5296024,5.061296 5.5035809,6.329863 3.7035706,3.121789 8.0602026,4.511322 12.9373606,4.167809 4.257192,0.355868 9.078449,1.029788 11.456662,-3.360303 3.076994,-3.090673 7.083864,-4.434599 11.112914,-5.566998 -2.498328,3.856749 -6.349054,6.705664 -8.393239,10.862356 -2.389602,3.226457 -2.255523,7.238899 -2.968984,10.97399 -0.404456,5.092797 -4.874966,9.059125 -4.540358,14.148225 -0.07432,5.437119 0.898442,10.796811 2.617697,15.956749 -0.743891,-5.091398 -2.256575,-10.118893 -1.492049,-15.361347 1.506382,-5.584208 3.135801,-11.200388 4.884098,-16.741946 2.323682,-3.549907 3.691854,-10.325022 5.767984,-12.075484 -0.03823,3.944301 -0.18555,8.442735 3.565805,10.918175 3.073654,2.831977 7.739251,5.503566 11.328219,1.845744 3.882356,-2.49736 6.908757,-6.358991 6.005972,-11.186105 1.108884,-1.485608 1.854068,6.408576 3.913318,7.900234 2.080531,5.081765 3.587009,10.42442 4.918081,15.752093 2.631025,5.944783 0.6395,12.501407 -0.453284,18.557913 2.150659,-5.680514 2.962671,-12.095166 2.587477,-18.256496 -2.169315,-4.460061 -4.367402,-9.042674 -4.925647,-14.029146 0.01882,-4.932486 -2.682999,-9.251984 -5.66977,-13.013244 -0.71625,-1.451647 -5.737293,-6.99505 -2.436384,-5.127891 4.965441,0.341223 8.380104,4.825884 11.857046,7.859297 4.866079,0.520781 9.811994,-0.291005 14.693833,-0.498651 C 89.781744,50.704737 94.696163,47.529958 97.5,42.823549 91.818042,46.765426 86.138572,52.130557 78.722879,52.216009 73.704973,53.17368 70.447823,49.45952 66.371,47.400698 c -3.322452,-1.620316 -6.760307,-4.059931 -9.994823,-4.871129 3.350258,-3.613901 8.131219,-5.535692 12.899585,-6.590348 4.657075,-2.754239 6.524104,-8.70615 10.72386,-12.250383 1.951867,-4.505383 4.455067,-8.88494 5.027625,-13.8616907 -0.488039,-1.6022397 -1.627161,5.6541957 -2.889657,7.0406157 -2.857682,4.958084 -6.585672,9.389779 -9.90795,14.036596 -4.299436,2.666743 -8.599356,5.506369 -13.383087,7.30855 -4.945684,3.434448 -1.123062,-3.299113 0.139764,-5.250694 3.164804,-3.496074 4.459121,-7.39664 5.684875,-11.79639 2.46112,-5.119683 2.788684,-10.877227 2.587468,-16.4479595 -0.40491,-3.597812 -0.535823,-1.7921712 -0.392826,0.58796 0.481669,4.3291384 -1.118787,8.3137615 -2.341954,12.3210785 -0.501995,3.982047 -2.271264,7.552728 -4.52147,10.836309 -1.595523,2.412549 -3.820441,9.380981 -6.073947,8.253752 0.873965,-0.977003 1.570621,-4.576544 0.279517,-3.289593 -1.126834,2.578755 -5.721733,0.468283 -8.162817,1.257786 -0.737695,-3.674544 -2.833766,0.444885 0.06418,1.596418 -0.237792,4.09937 -4.190294,-2.857135 -4.872764,-4.614358 C 38.444827,26.557827 35.044449,21.6749 34.622465,15.680691 32.263091,11.698195 32.751073,6.9300343 32.714908,2.5000001 Z m -1.903773,94.501359 c -0.03803,-0.01201 -0.09487,0.14139 -0.05666,0.498641 0.113859,-0.309385 0.09468,-0.48668 0.05666,-0.498641 z m 37.890429,0 c -0.03803,-0.01201 -0.09487,0.14139 -0.05666,0.498641 0.113869,-0.309385 0.09468,-0.48668 0.05666,-0.498641 z"
        />
        <path transform="translate(15,15) scale(.7)" id="queen"
              d="m 51.419925,4.9459768 c 1.239921,1.4806973 0.09537,3.4017596 -0.458403,3.8587249 1.036431,1.9456253 6.602822,-0.1411023 8.493855,2.9908123 1.53746,1.999909 0.403436,5.239097 -0.252378,6.928902 -1.179396,1.100927 -1.773877,5.787524 -3.190973,6.162054 -2.84298,-1.203968 -6.055244,-0.551784 -9.063988,-0.6352 -1.938798,0.0081 -2.151978,0.315783 -4.116644,0.602798 C 41.950687,22.563657 40.445876,19.109741 40.254708,16.962036 39.350527,15.09615 39.358792,12.575638 40.9782,11.141624 43.701584,8.9755146 47.290788,10.284091 48.417536,8.9924698 47.735863,8.6105193 45.978467,6.5324004 47.260227,5.1650225 48.025423,4.8904818 48.387572,3.3564074 51.419925,4.9459768 Z m -7.108499,6.6636012 c -4.905125,-0.634391 -2.375322,6.47713 -1.734804,6.382226 0.363432,0.830778 2.443343,0.827453 1.962957,-1.477223 0.229957,-0.485569 0.365436,-4.314969 -0.228153,-4.905003 z m 12.71216,5.790953 c 0.546468,-0.624769 0.5662,-6.762305 -1.343861,-5.051335 -0.88122,1.033946 -0.956337,2.963893 -0.49456,4.491441 -0.07847,2.394993 1.441586,2.01404 1.838421,0.559894 z m -8.947841,0.711036 c 1.845404,-0.412943 0.88691,-9.583356 -1.185372,-5.482967 -0.637688,2.598328 -0.562543,5.765756 1.185372,5.482967 z m 5.019077,-1.1407 c 0.274513,-1.239773 1.086906,-6.505092 -1.716639,-4.295073 -0.854877,1.312606 -0.792899,7.03275 1.716639,4.295073 z M 43.2715,35.998497 c 3.217707,-1.772166 3.562329,-1.816902 6.621271,-1.658434 2.131107,-0.02374 5.360252,1.479722 5.681077,2.310346 0,0 2.3005,-1.838999 3.893594,-4.033723 1.175605,-1.436228 2.503687,-5.523156 4.699801,-3.466629 0.623685,2.511643 -2.332915,3.60247 -3.723524,5.204398 -1.030522,1.09354 -2.527513,1.875514 -3.246978,3.186 1.320568,3.135465 1.745065,7.886874 -2.189102,9.327739 -3.867289,1.478975 -8.993832,1.671253 -12.171695,-1.367948 -3.375198,-2.733748 1.697004,-7.380332 -1.641392,-9.446573 -1.914838,-1.975366 -4.632864,-3.392915 -5.768029,-5.931675 0.493013,-3.386004 3.479489,-0.419188 4.094528,1.337387 1.237062,1.936158 2.691864,2.496104 3.750449,4.539112 z m 5.26052,-16.289953 c 0,0.743037 0,0.485754 0,0 z m 0.91256,0.114074 c -0.858761,-0.148543 -1.006202,1.309486 0,0 z m 1.140704,-0.114074 c 0.37277,0.940023 0.899022,0.682933 0,0 z m -3.650242,0.114074 c -0.684104,1.55049 1.837062,-0.381806 0,0 z m 6.15978,0 c -1.812599,0.270367 0.444078,1.144362 0,0 z m -7.528616,0.342212 c -0.54986,0.175623 -0.304713,0.950038 0,0 z m 8.897462,0 c -0.0437,0.839467 0.464636,0.677527 0,0 z m 0.570352,0.228137 c -0.313424,-0.129823 0.129827,0.313424 0,0 z m -11.521077,0.114074 c -0.162698,0.555635 0.337857,0.668771 0,0 z m 13.00398,0 c -0.676344,0.528254 -0.335057,1.006192 0,0 z m -12.775838,0.456268 c -0.313405,-0.129818 0.129827,0.313442 0,0 z M 19.558236,65.369635 C 13.322684,65.695368 7.2614849,63.005026 2.5,59.141985 3.1059476,57.482685 5.60326,56.815081 7.0184275,55.600298 14.51217,50.794137 22.284641,44.862152 31.658738,45.407388 c 5.440299,-0.03989 10.1365,2.923714 14.861154,5.158368 4.024912,1.573094 8.170827,-0.137602 11.468352,-2.472399 8.925573,-5.123649 20.1495,-2.332526 27.961939,3.549856 3.593147,2.72053 7.820504,4.476471 11.549817,6.919866 -2.822785,3.041779 -7.073385,4.952003 -11.096724,6.13354 -2.137519,0.477465 -4.307927,0.779003 -6.50199,0.673016 1.201787,2.130094 2.745263,4.124992 3.67191,6.363965 -4.212052,2.640132 -10.377789,2.123388 -13.890804,-1.616599 -4.142189,-4.212637 -7.146641,-9.387184 -10.413899,-14.269558 -0.745808,-2.848312 -1.7408,1.517914 -2.624822,2.500532 -1.958671,1.700911 4.187999,2.609513 0.231068,3.356149 -4.864132,1.615969 -10.160182,1.4297 -15.072832,0.129344 2.869218,-2.102313 0.979259,-4.506205 -0.399836,-6.75273 -1.037638,-2.147335 -1.975439,2.973185 -3.04458,3.97207 -3.390036,6.235381 -8.083121,13.081098 -15.613078,14.239184 -2.440008,0.04073 -9.089381,-0.219701 -5.811245,-3.635336 0.836076,-1.451791 1.755628,-2.854919 2.625068,-4.287021 z M 87.20176,58.525433 C 82.210802,52.990554 75.161128,47.625526 67.263312,48.768799 c -3.315423,0.181328 -4.820755,2.185571 -1.749862,4.400036 4.683073,5.630602 12.804603,9.645499 19.960184,6.206403 l 0.872737,-0.403027 z M 36.212458,49.856116 C 30.461434,47.492187 23.860169,48.89707 18.962804,52.52542 c -2.477047,1.822258 -4.975956,3.730934 -7.04725,6.000013 6.021602,3.40735 13.935596,2.336136 18.928996,-2.438732 2.083559,-1.794854 3.919443,-3.890244 5.367908,-6.230585 z m 0.114076,6.159787 c -3.647525,2.741738 -7.214946,5.622509 -11.178858,7.907322 -2.645988,1.78266 -5.078415,6.650977 -0.05225,5.356391 5.869746,-1.815451 8.812989,-8.106303 11.231119,-13.263713 z m 27.034597,0.342203 c 1.332583,3.833625 3.610018,7.552869 6.576166,10.408624 1.348145,2.126372 7.965189,4.011646 7.485543,1.047514 -2.174578,-4.39127 -6.90345,-6.332751 -10.624391,-9.165309 z m -24.75319,10.266293 c 7.181316,2.855586 15.411868,3.067082 22.609248,0.154856 1.186332,1.201251 3.154153,5.73122 -0.391808,5.730158 -6.747394,2.460426 -14.354253,2.606607 -21.097809,0.02975 -1.26234,-0.505731 -3.586772,-0.65829 -2.24389,-2.461708 z m -1.711055,11.292939 c 5.860226,0.766106 11.801099,2.494229 17.74731,1.34781 2.808173,-0.291959 5.585041,-0.808846 8.374716,-1.233736 0.951121,5.68697 -5.789063,5.849961 -9.718148,6.158505 -4.793016,0.213761 -9.814925,0.111504 -14.356523,-1.554287 -1.626448,-0.940515 -1.885475,-3.025612 -2.047355,-4.718292 z m 6.387923,11.064792 c 4.39527,-0.190322 8.83843,-0.166335 13.232114,0 -1.95873,2.237512 -3.623377,4.814469 -5.815283,6.782603 -2.663829,-1.948667 -5.026251,-4.478045 -7.416831,-6.782603 z"
        />
        <path transform="translate(2.5,0) scale(.95,1)" id="hex"
              d="M 0,25 50,0 100,25 v 50 l -50,25 L 0,75 Z"/>
    </defs>
</svg>
